<!-- Generated by IcoMoon.io -->
<svg version="1.1" xmlns="http://www.w3.org/2000/svg" width="512" height="512" viewBox="0 0 512 512">
<title>icon-dc_zip</title>
<path d="M388.79 295.7c3.13-2.97 4.69-7.25 4.69-12.86 0-11.11-6.040-16.67-18.11-16.67h-22.12v33.98h21.96c5.93 0 10.46-1.48 13.58-4.45z"></path>
<path d="M381 36.57h-234.71v173.71h-109.72v182.86h109.71v82.29h329.14v-342.72l-94.42-96.14zM109.71 362.67v-22.36l55.7-73.81h-53.060v-21.16h83.19v22.92l-55.22 73.25h56.74v21.16h-87.35zM438.86 438.86h-256v-45.71h256v45.71zM251.050 362.67v-117.34h26.29v117.33h-26.29zM326.96 362.67v-117.34h49.93c14.8 0 25.91 4.14 33.34 12.42 5.88 6.57 8.82 15.12 8.82 25.65 0 11.33-3.61 20.2-10.82 26.61-7.27 6.47-17.34 9.7-30.21 9.7h-24.76v42.96h-26.3zM438.86 210.29h-256v-137.15h172.19v85.33h83.81v51.82z"></path>
</svg>
