<!-- Generated by IcoMoon.io -->
<svg version="1.1" xmlns="http://www.w3.org/2000/svg" width="512" height="512" viewBox="0 0 512 512">
<title>icon-dc_ruler</title>
<path d="M434.8 104.9l-68.2-68.2-330 329.8 108.9 108.9 329.9-329.9-40.6-40.6zM145.5 423.3l-56.8-56.8 24.6-24.6 19.2 19.2 26-26.1-19.2-19.2 24.6-24.6 42.2 42.2 26-26.1-42.1-42.1 24.6-24.6 19.2 19.2 26.1-26.1-19.2-19.2 24.6-24.6 42.2 42.2 26-26.1-42.2-42.2 24.6-24.6 19.2 19.2 26-26.1-19.2-19.2 24.6-24.6 56.8 56.8-277.8 278z"></path>
</svg>
