<!-- Generated by IcoMoon.io -->
<svg version="1.1" xmlns="http://www.w3.org/2000/svg" width="512" height="512" viewBox="0 0 512 512">
<title>icon-dc_label</title>
<path d="M457 137.64v-82h-173.46l-247 246.67 173.34 164.69 247.12-247.18v-63.82h18.52v-18.36zM420.37 137.64h-28.070c-4.409-21.052-22.817-36.635-44.865-36.635-25.289 0-45.79 20.501-45.79 45.79s20.501 45.79 45.79 45.79c22.048 0 40.457-15.584 44.813-36.337l0.053-0.298h28.070v48.71l-211.14 211.22-120.17-114.19 209.64-209.38h121.67zM373.31 156c-3.885 10.762-14.010 18.315-25.899 18.315-15.171 0-27.47-12.298-27.47-27.47s12.298-27.47 27.47-27.47c11.889 0 22.015 7.553 25.839 18.124l0.060 0.191h-25.87v18.31zM252.11 218.1l17.27 17.27-26.87-7.67-8.82 8.82 29.46 29.47 7.3-7.3-18.17-18.17 28.31 8 8.28-8.28-29.46-29.47zM177 321.67c1.61-4.41 1-7.5-2.060-10.55-5.070-5.070-11.45-4.45-17.64 1.74l-14.17 14.14 29.46 29.47 14.3-14.3c6.8-6.8 7.55-13.31 2.19-18.67-3.55-3.5-7.080-4.050-12.080-1.83zM162.58 330.58l-5.4-5.4 5.15-5.15c2.14-2.15 4-2.27 5.85-0.42s1.69 3.67-0.41 5.77zM179.89 337l-5.44 5.44-6.27-6.26 5.24-5.23c2.47-2.48 4.82-2.68 6.88-0.62s1.85 4.41-0.41 6.67zM277.080 193.080l-11.58 11.58 29.5 29.47 11.38-11.38c9.48-9.48 9.6-20.89 0.37-30.12-9.11-9.070-20.32-8.9-29.67 0.45zM300.32 216.080l-3.59 3.58-16.73-16.77 3.51-3.5c4.32-4.33 9.47-3.71 15 1.77s6.050 10.67 1.81 14.92zM219.94 297c-6.27-4-8.2-4.41-12.12-2.39 2.39-4.86 1.73-8.65-2.31-12.69-5.4-5.4-12.56-4.66-19.24 2l-13.72 13.72 29.45 29.44 8.12-8.12-10.47-10.47 3.75-3.75c2.35-2.35 3.88-2.22 8.53 0.79 2.219 1.565 4.769 2.889 7.492 3.844l0.218 0.067 8.32-8.32-0.16-0.17c-1.31-0.16-3.37-1.24-7.86-3.95zM198.43 298.16l-4.58 4.57-7-7 4.21-4.2c1.73-1.73 2.64-2.31 3.91-2.43 0.041-0.001 0.088-0.002 0.136-0.002 1.457 0 2.764 0.637 3.66 1.647l0.005 0.005c2.29 2.25 2.17 4.84-0.34 7.36zM210.49 259.72l18.84 40.090 7.5-7.5-3.34-6.63 11.25-11.25 6.59 3.38 8.62-8.62-39.89-19zM237.2 270.51l-7.59 7.49-7.61-15.29z"></path>
</svg>
