<!-- Generated by IcoMoon.io -->
<svg version="1.1" xmlns="http://www.w3.org/2000/svg" width="512" height="512" viewBox="0 0 512 512">
<title>icon-dc_print</title>
<path d="M365.71 128v-91.43h-219.42v91.43h-109.72v210.29c0 27.69 27.17 54.86 54.86 54.86h54.86v82.29h219.43v-82.29h54.86c27.69 0 54.86-27.17 54.86-54.86v-210.29h-109.73zM182.86 73.14h146.29v54.86h-146.29v-54.86zM329.14 438.86h-146.28v-128h146.29v128zM438.86 338.29c0 7.52-10.77 18.29-18.29 18.29h-54.86v-82.29h-219.42v82.29h-54.86c-7.52 0-18.29-10.77-18.29-18.29v-173.72h365.71v173.72z"></path>
</svg>
