<!-- Generated by IcoMoon.io -->
<svg version="1.1" xmlns="http://www.w3.org/2000/svg" width="512" height="512" viewBox="0 0 512 512">
<title>icon-dc_link</title>
<path d="M210.24 383.18c-21.43 21.42-61.7 20.18-84.49-2.61-21.72-21.72-21.36-57.42 0.8-79.57l70.090-70.090c10.56-10.56 24.47-16.46 39.2-16.3 14.73 0.050 28.7 5.93 39.32 16.56 2.74 2.74 5.19 5.75 7.29 8.95l30.58-20.060c-3.47-5.28-7.51-10.25-12.010-14.75-17.5-17.5-40.6-27.18-65.060-27.27-24.51 0-47.68 9.51-65.18 27.010l-70.090 70.090c-36.42 36.42-36.78 95.31-0.8 131.29 18.98 18.98 44.97 28.54 70.6 28.54 24.31 0 48.28-8.6 65.6-25.92l48.21-48.21-25.86-25.86-48.2 48.2z"></path>
<path d="M411.28 99.74c-35.47-35.47-97.71-35.47-133.18 0l-47.32 47.32 25.86 25.86 47.32-47.32c21.32-21.32 60.15-21.32 81.46 0 21.78 21.78 22.14 58.23 0.79 79.59l-69.050 69.050c-21.15 21.15-56.39 20.33-78.55-1.82-3.83-3.83-7.050-8.15-9.58-12.85l-32.21 17.32c4.22 7.84 9.58 15.040 15.93 21.39 18.54 18.54 42.8 27.86 66.81 27.86 23.15 0 46.070-8.65 63.45-26.030l69.050-69.050c35.38-35.38 35.020-95.51-0.78-131.32z"></path>
</svg>
