<!-- Generated by IcoMoon.io -->
<svg version="1.1" xmlns="http://www.w3.org/2000/svg" width="512" height="512" viewBox="0 0 512 512">
<title>icon-dc_book</title>
<path d="M322.67 73.14c-26.36 0-50.82 14.45-66.67 36.1-15.84-21.64-40.3-36.1-66.67-36.1h-152.76v338.29h173.71c22.55 0 27.43 21.99 27.43 27.43h36.57c0-5.44 4.88-27.43 27.43-27.43h173.71v-338.29h-152.75zM237.71 380.75c-7.83-3.69-16.96-5.89-27.43-5.89h-137.14v-265.15h116.19c25.32 0 48.38 25.96 48.38 54.48v216.56zM438.86 374.86h-137.15c-10.47 0-19.6 2.2-27.43 5.89v-216.56c0-28.51 23.060-54.48 48.38-54.48h116.19v265.15z"></path>
</svg>
