<!-- Generated by IcoMoon.io -->
<svg version="1.1" xmlns="http://www.w3.org/2000/svg" width="512" height="512" viewBox="0 0 512 512">
<title>icon-dc_solution</title>
<path d="M474.29 265.14l-81.15-81.14v-92.57h-210.28v-54.86h-146.29v146.29h146.29v-54.86h173.71v56l-81.14 81.14 81.14 81.15v46.85h-194.67c-8.131-26.657-32.506-45.715-61.333-45.715-35.346 0-64 28.654-64 64s28.654 64 64 64c28.827 0 53.202-19.058 61.213-45.262l0.119-0.454h231.24v-83.42zM146.29 146.29h-73.15v-73.15h73.15zM100.57 438.86c-15.149 0-27.43-12.281-27.43-27.43s12.281-27.43 27.43-27.43c15.149 0 27.43 12.281 27.43 27.43v0c-0.022 15.14-12.29 27.407-27.428 27.43h-0.002zM374.86 217.060l48.080 48.080-48.080 48.080-48.080-48.080z"></path>
</svg>
