<!-- Generated by IcoMoon.io -->
<svg version="1.1" xmlns="http://www.w3.org/2000/svg" width="512" height="512" viewBox="0 0 512 512">
<title>icon-dc_screenshot</title>
<path d="M430.66 90.24h-77.58c-5.54-16.36-11.88-28.33-17.44-36.75-7.13-10.8-17.35-16.92-28.060-16.92h-101.83c-11.88 0-23.23 6.82-31.050 18.89-6.503 10.004-12.091 21.51-16.185 33.701l-0.315 1.079h-76.86c-24.709 0.034-44.73 20.052-44.77 44.756v241.324c0.029 24.716 20.054 44.746 44.767 44.78h349.323c24.716-0.034 44.742-20.063 44.77-44.777v-241.323c-0.040-24.708-20.062-44.726-44.767-44.76h-0.003zM438.94 376.32c-0.061 4.55-3.731 8.224-8.274 8.29h-349.327c-4.549-0.067-8.219-3.74-8.28-8.284v-241.326c0.067-4.546 3.734-8.213 8.273-8.28h349.327c4.546 0.067 8.214 3.734 8.28 8.274v0.006zM256 169.21c-47.75 0-86.46 38.709-86.46 86.46s38.709 86.46 86.46 86.46c47.75 0 86.46-38.709 86.46-86.46v0c-0.057-47.727-38.733-86.403-86.454-86.46h-0.006zM256 305.64c-27.614 0-50-22.386-50-50s22.386-50 50-50c27.614 0 50 22.386 50 50v0c0 27.614-22.386 50-50 50v0z"></path>
</svg>
