<!-- Generated by IcoMoon.io -->
<svg version="1.1" xmlns="http://www.w3.org/2000/svg" width="512" height="512" viewBox="0 0 512 512">
<title>icon-dc_paperclip</title>
<path d="M438.85 142.85c0.39-23.13-8.58-45.050-25.26-61.73-33.85-33.84-87.92-35.080-122.060-3.39l-0.060-0.060-2.25 2.25c0 0-0.010 0.010-0.010 0.010v0l-182.33 182.3c-22.28 22.28-34.25 52.25-33.72 84.39 0.54 31.92 13.36 62.020 36.12 84.77 23.36 23.35 53.33 35.030 83.31 35.030 30.010 0 60.030-11.7 83.42-35.080l131.39-131.36-25.86-25.86-131.39 131.36c-32.26 32.26-82.78 32.28-115.020 0.060-16.010-16.010-25.030-37.15-25.41-59.52-0.37-22.15 7.8-42.71 23.010-57.92l182.34-182.3c19.71-19.69 52.3-19.16 72.66 1.19 9.6 9.6 14.77 22.12 14.55 35.25-0.22 13.11-5.68 25.67-15.39 35.37l-159.84 159.8c-8.38 8.37-20.7 9.17-28.060 1.82-4.3-4.3-5-9.26-4.82-12.66 0.28-5.36 2.79-10.68 7.090-14.97l108.88-108.86-25.86-25.86-108.87 108.86c-10.71 10.71-17.010 24.54-17.75 38.95-0.79 15.28 4.71 29.63 15.49 40.4 10.61 10.6 24.32 15.88 38.24 15.87 13.1 0 26.38-4.68 37.44-13.95l0.18 0.18 3.9-3.9c0.010-0.010 0.020-0.020 0.030-0.030l159.81-159.79c16.45-16.44 25.72-37.97 26.1-60.62z"></path>
</svg>
