<!-- Generated by IcoMoon.io -->
<svg version="1.1" xmlns="http://www.w3.org/2000/svg" width="512" height="512" viewBox="0 0 512 512">
<title>icon-dc_network</title>
<path d="M438.86 329.14h-9.14v-91.43h-155.43v-54.86h45.71v-109.71h-128v109.71h45.71v54.86h-155.42v91.43h-45.72v109.71h128v-109.71h-45.71v-54.86h118.86v54.86h-45.72v109.71h128v-109.71h-45.71v-54.86h118.86v54.86h-45.72v109.71h128v-109.71h-36.57zM228.57 109.71h54.86v36.57h-54.86v-36.57zM128 402.29h-54.86v-36.57h54.86v36.57zM283.43 402.29h-54.86v-36.57h54.86v36.57zM438.86 402.29h-54.86v-36.57h54.86v36.57z"></path>
</svg>
