<!-- Generated by IcoMoon.io -->
<svg version="1.1" xmlns="http://www.w3.org/2000/svg" width="512" height="512" viewBox="0 0 512 512">
<title>icon-dc_routing</title>
<path d="M430.3 124.12c-4.54-49.030-45.88-87.55-96.080-87.55-53.21 0-96.51 43.29-96.51 96.51v245.84c0 33.050-26.89 59.94-59.94 59.94-29.7 0-54.42-21.72-59.12-50.12 26.46-7.46 45.91-31.8 45.91-60.61 0-34.73-28.25-62.98-62.98-62.98s-62.98 28.25-62.98 62.98c0 27.78 18.090 51.4 43.1 59.75 4.53 49.030 45.88 87.55 96.080 87.55 53.21 0 96.51-43.29 96.51-96.51v-245.84c0-33.050 26.89-59.94 59.94-59.94 29.7 0 54.42 21.72 59.12 50.12-26.46 7.46-45.91 31.8-45.91 60.61 0 34.73 28.25 62.98 62.98 62.98s62.98-28.25 62.98-62.98c0-27.78-18.090-51.4-43.1-59.75zM101.59 301.71c14.56 0 26.41 11.85 26.41 26.41s-11.85 26.41-26.41 26.41-26.41-11.85-26.41-26.41 11.84-26.41 26.41-26.41zM410.41 210.29c-14.56 0-26.41-11.85-26.41-26.41s11.85-26.41 26.41-26.41c14.56 0 26.41 11.85 26.41 26.41 0.010 14.56-11.84 26.41-26.41 26.41z"></path>
</svg>
