<!-- Generated by IcoMoon.io -->
<svg version="1.1" xmlns="http://www.w3.org/2000/svg" width="512" height="512" viewBox="0 0 512 512">
<title>icon-dc_film</title>
<path d="M393.1 36.6v36.5h-27.3v-36.5h-36.6v54.5h-146.3v-54.5h-36.6v36.7h-27.3v-36.7h-36.6v438.8h36.6v-54.8h27.3v54.8h36.6v-73.3h146.4v73.3h36.6v-54.8h27.3v54.8h36.6v-438.8h-36.7zM393.1 91.4v36.4h-27.3v-36.4h27.3zM365.9 292.6v-36.3h27.3v36.3h-27.3zM393.2 310.9v36.6h-27.3v-36.6h27.3zM365.9 238v-36.7h27.3v36.7h-27.3zM365.9 183.1v-36.9h27.3v36.8l-27.3 0.1zM329.3 127.7v101.1h-146.4v-101.1h146.4zM146.3 91.6v36.3h-27.3v-36.4l27.3 0.1zM119 292.5v-36.5h27.3v36.5h-27.3zM146.3 310.8v36.6h-27.3v-36.6h27.3zM119 237.7v-36.4h27.3v36.4h-27.3zM119 183v-36.8h27.3v36.8h-27.3zM119 402.4v-36.7h27.3v36.7h-27.3zM182.9 365.6v-100.2h146.4v100.1l-146.4 0.1zM365.9 402.4v-36.7h27.3v36.6l-27.3 0.1z"></path>
</svg>
