<!-- Generated by IcoMoon.io -->
<svg version="1.1" xmlns="http://www.w3.org/2000/svg" width="512" height="512" viewBox="0 0 512 512">
<title>icon-dc_cart</title>
<path d="M141.73 402.66c-18.78-3.040-34.74 13.010-31.62 31.77 1.89 11.36 11.080 20.5 22.45 22.34 18.78 3.040 34.74-13.010 31.62-31.77-1.89-11.36-11.080-20.5-22.45-22.34z"></path>
<path d="M397.18 310.86l67.050-201.14h-328.65l-49.5-49.5-25.87 25.85 49.5 49.5v248.43h274.29v-36.57h-237.71v-36.57h250.89zM146.29 146.29h267.2l-42.67 128h-224.53v-128z"></path>
<path d="M333.73 402.66c-18.78-3.040-34.74 13.010-31.62 31.77 1.89 11.36 11.080 20.5 22.45 22.34 18.78 3.040 34.74-13.010 31.62-31.77-1.89-11.36-11.080-20.5-22.45-22.34z"></path>
</svg>
