<!-- Generated by IcoMoon.io -->
<svg version="1.1" xmlns="http://www.w3.org/2000/svg" width="512" height="512" viewBox="0 0 512 512">
<title>icon-dc_rocket</title>
<path d="M456.36 36.57c-3.56 0-87.76 0.47-144 41.4-18.89 13.75-58.4 54.76-96.61 94.42-15.75 16.38-30.69 31.85-41.75 42.85l-36.7 36.5h-100.55l96.33 87.67 26.92 26.8 109.78 109.12v-110.15l140.22-139.42c30.82-30.427 52.33-70.215 59.914-114.751l0.176-1.249c2.824-16.2 4.598-35.045 4.906-54.246l0.004-0.303v-18.64zM85.2 270.63l-0.27-0.24h0.27zM250.38 429.69h0.69v0.69zM433.26 103.63c-6.406 37.77-24.157 70.594-49.571 95.671l-0.019 0.019-169.3 168.36-70.39-70 56.3-56c11.36-11.29 26.39-26.9 42.3-43.42 33.62-34.89 75.45-78.32 91.7-90.14 31.72-23.12 76.89-30.62 102.45-33.12-0.64 8.070-1.73 18-3.47 28.63zM128.6 356.63l-48.42 48.19 26.3 26.44 48.41-48.15zM140.71 416.82l26.29 26.48 24.21-24.080-26.3-26.44zM118.58 347l-26.29-26.44-24.21 24.080 26.29 26.44zM319.52 157.55c0 0.048-0 0.103-0 0.16 0 18.866 15.294 34.16 34.16 34.16s34.16-15.294 34.16-34.16c0-18.866-15.294-34.16-34.16-34.16-0.003 0-0.007 0-0.010 0h0c-0.015 0-0.033 0-0.050 0-18.798 0-34.043 15.21-34.1 33.995v0.006zM353.67 142.22c8.389 0.101 15.15 6.925 15.15 15.329 0 8.466-6.863 15.33-15.33 15.33s-15.329-6.863-15.33-15.329v0c0.063-8.48 6.951-15.33 15.44-15.33 0.024 0 0.050 0 0.074 0h-0.004z"></path>
</svg>
