<!-- Generated by IcoMoon.io -->
<svg version="1.1" xmlns="http://www.w3.org/2000/svg" width="512" height="512" viewBox="0 0 512 512">
<title>icon-dc_notification-01</title>
<path d="M447.32 393.14l-63.32-105.63v-120.39c0-71.99-57.42-130.55-128-130.55s-128 58.57-128 130.55v120.39l-63.33 105.63h100.51c5.12 46.93 43.16 82.29 90.82 82.29s85.7-35.36 90.82-82.29h100.5zM164.57 297.63v-130.51c0-45.2 34.96-93.98 91.43-93.98s91.43 48.78 91.43 93.98v130.51l35.33 58.94h-253.52l35.33-58.94zM256 438.86c-27.15 0-49.1-19.36-53.88-45.71h107.76c-4.78 26.35-26.73 45.71-53.88 45.71z"></path>
</svg>
