<!-- Generated by IcoMoon.io -->
<svg version="1.1" xmlns="http://www.w3.org/2000/svg" width="512" height="512" viewBox="0 0 512 512">
<title>icon-dc_folder_open</title>
<path d="M402.29 210.29v-100.58h-185.59l-45.71-36.57h-134.42v329.14c0 4.27 0 17.28 9.58 26.82 6.45 6.42 15.46 9.67 26.74 9.67 0.020 0 0.040 0 0.070 0l0.12 0.010c0.72 0.040 1.44 0.080 2.17 0.080h272.18c0.18 0 4.33 0 5.91-0.12 1.65-0.12 2.99-0.13 4.29-0.15 4.18-0.040 11.97-0.12 18.36-6.62 4.42-4.49 6-9.98 7.21-14.99l82.68-206.7h-63.59zM73.14 109.71h85.010l45.71 36.57h161.84v64h-259.59l-32.96 89.47v-190.040zM349.68 402.27c-0.93 0.010-1.95 0.020-2.25 0.020l-272.12-0.010c-0.32-0.020-0.63-0.040-0.95-0.050l57.24-155.37h280.24l-62.16 155.41z"></path>
</svg>
