<!-- Generated by IcoMoon.io -->
<svg version="1.1" xmlns="http://www.w3.org/2000/svg" width="512" height="512" viewBox="0 0 512 512">
<title>icon-dc_faq02</title>
<path d="M54.86 73.14v301.71h54.86v77.55l132.94-77.55h214.49v-301.71h-402.29zM420.57 338.29h-187.8l-86.49 50.45v-50.45h-54.85v-228.58h329.14v228.58z"></path>
<path d="M251.97 179.030c3.48-14.97 11.050-17.030 18.71-17.030 6.070 0 13.3 2.060 13.3 11.87 0 5.51-0.48 8.75-10.8 16.58-18.070 13.83-26.32 22.44-26.32 43.18v13.23h35.81v-12.21c0-7.71 0-8.9 10.58-16.62 7.8-5.69 11.090-8.36 15.22-13.010 7.65-8.75 11.54-19.3 11.54-31.36 0-26.45-20.66-45.65-49.12-45.65-13.78 0-26.080 4.32-35.45 12.39-9.53 7.98-14.66 17.14-17.7 31.61l-2.57 12.21 34.25 5.82 2.55-11.010z"></path>
<path d="M263.94 265.17c-11.93 0.58-21.050 9.7-21.63 21.63-0.5 10.46 6.37 20.19 16.41 23.13 17.19 5.030 33.37-11.15 28.34-28.34-2.93-10.050-12.66-16.92-23.12-16.42z"></path>
</svg>
