<!-- Generated by IcoMoon.io -->
<svg version="1.1" xmlns="http://www.w3.org/2000/svg" width="512" height="512" viewBox="0 0 512 512">
<title>icon-dc_flashlight</title>
<path d="M164.93 245.54l-10.96 46.9-110.17 115.43 61.73 58.92 101.26-106.1 61.55-11.91 44.82-47.5-103.31-103.32-44.92 47.58zM253.69 302.14l-6.94 7.36-29.39 5.69-20.17-20.17 6.67-28.56 6.87-7.27 42.96 42.95z"></path>
<path d="M256 127.55v42.67c47.3 0 85.78 38.48 85.78 85.78h42.67c0-70.83-57.62-128.45-128.45-128.45z"></path>
<path d="M256 52.57v42.67c88.64 0 160.76 72.12 160.76 160.76h42.67c0-112.17-91.26-203.43-203.43-203.43z"></path>
</svg>
