<!-- Generated by IcoMoon.io -->
<svg version="1.1" xmlns="http://www.w3.org/2000/svg" width="512" height="512" viewBox="0 0 512 512">
<title>icon-dc_alert-error-filled</title>
<path d="M256 36.57v0c-121.19 0-219.43 98.24-219.43 219.43v0c0 121.19 98.24 219.43 219.43 219.43v0c121.19 0 219.43-98.24 219.43-219.43v0c0-121.19-98.24-219.43-219.43-219.43zM237.71 146.29h36.57v137.14h-36.57v-137.14zM256 374.86c-14.91 0-27.43-12.52-27.43-27.43 0-15.5 11.93-27.43 27.43-27.43 14.91 0 27.43 12.52 27.43 27.43 0 14.9-12.52 27.43-27.43 27.43z"></path>
</svg>
