<!-- Generated by IcoMoon.io -->
<svg version="1.1" xmlns="http://www.w3.org/2000/svg" width="512" height="512" viewBox="0 0 512 512">
<title>icon-dc_document_txt</title>
<path d="M381 36.57h-234.71v173.72h-109.72v182.85h109.72v82.29h329.14v-342.72zM438.85 438.86h-256v-45.72h256zM175.090 246.86v21.21h-33.18v96.43h-26.36v-96.43h-33.26v-21.21zM225.090 246.86l21.86 37.52 21.78-37.52h28.12l-35.55 56.25 39.78 61.39h-31.42l-25.15-42.27-25.39 42.27h-28.29l39.7-60.59-36.73-57.050zM403.7 246.86v21.21h-33.22v96.43h-26.35v-96.43h-33.27v-21.21zM355 73.14v85.33h83.82v51.82h-256v-137.15z"></path>
</svg>
