<!-- Generated by IcoMoon.io -->
<svg version="1.1" xmlns="http://www.w3.org/2000/svg" width="512" height="512" viewBox="0 0 512 512">
<title>icon-dc_cloud_drive_error</title>
<path d="M246.86 164.71h36.57v100.43h-36.57v-100.43z"></path>
<path d="M263.94 283.46c-11.93 0.58-21.050 9.7-21.63 21.63-0.5 10.46 6.37 20.19 16.41 23.13 17.19 5.030 33.37-11.15 28.34-28.34-2.93-10.060-12.66-16.93-23.12-16.42z"></path>
<path d="M449.18 226.59c-9.41-11.19-20.74-19.94-33.23-25.83-5.69-26.15-18.83-50.13-38.31-69.31-26.19-25.8-60.86-40.010-97.63-40.010-30.62 0-59.67 9.76-84.010 28.22-14.2 10.77-26.23 24.28-35.37 39.51-2.94-0.23-5.9-0.34-8.87-0.34-30.55 0-59.34 12.75-81.070 35.89-20.62 21.96-32.45 51.58-32.45 81.26s11.82 59.29 32.44 81.26c21.73 23.15 50.52 35.91 81.080 35.91h224.81c52.54 0 96.92-46.060 96.92-100.57 0-23.91-8.63-47.34-24.31-65.99zM376.57 356.57c0 0-223.28 0-224.81 0-42.5 0-76.95-38.1-76.95-80.6s34.45-80.58 76.95-80.58c10.6 0 20.7 2.14 29.89 6.020 12.56-42.44 51.83-73.41 98.35-73.41 56.090 0 101.64 45.010 102.56 100.88 30.52 3.010 54.36 32.38 54.36 63.69 0 33.33-27.020 64-60.35 64z"></path>
</svg>
