<!-- Generated by IcoMoon.io -->
<svg version="1.1" xmlns="http://www.w3.org/2000/svg" width="512" height="512" viewBox="0 0 512 512">
<title>icon-dc_offline</title>
<path d="M455.65 185.35c0-0.098 0-0.214 0-0.331 0-28.435-9.272-54.704-24.957-75.95l0.247 0.35 44.49-44.49-28.36-28.36-44.49 44.49c-21.005-15.439-47.38-24.706-75.92-24.706-35.639 0-67.902 14.452-91.249 37.816l-0.001 0.001-17.92 18-36.19-36.17-28.36 28.36 68.29 68.29-37.13 37.1 28.35 28.36 37.14-37.11 61.41 61.42-37.13 37.13 28.36 28.36 37.13-37.14 66.52 66.52 28.35-28.36-34.41-34.42 18-17.95c23.367-23.216 37.831-55.37 37.831-90.903 0-0.108 0-0.216-0-0.324v0.017zM389.53 248.17l-18 18-125.68-125.65 18-18c15.935-15.273 37.599-24.675 61.461-24.675 49.087 0 88.88 39.793 88.88 88.88 0 23.853-9.397 45.512-24.69 61.477l0.031-0.032zM77.46 182.79l34.7 34.7-18 17.95c-23.353 23.346-37.798 55.602-37.798 91.231 0 28.534 9.264 54.905 24.95 76.268l-0.252-0.36-44.49 44.49 28.36 28.36 44.5-44.49c21.012 15.399 47.375 24.641 75.899 24.641 35.629 0 67.889-14.421 91.264-37.743l-0.002 0.002 17.92-18 34.7 34.7 28.36-28.36-251.75-251.75zM140.52 245.85l125.63 125.63-17.95 18c-16.026 15.753-38.022 25.478-62.288 25.478-49.087 0-88.88-39.793-88.88-88.88 0-24.247 9.709-46.226 25.451-62.262l-0.013 0.014z"></path>
</svg>
