<!-- Generated by IcoMoon.io -->
<svg version="1.1" xmlns="http://www.w3.org/2000/svg" width="512" height="512" viewBox="0 0 512 512">
<title>icon-dc_connectivity</title>
<path d="M425.14 292.57c-17.894 0.015-33.601 9.37-42.508 23.454l-0.122 0.207-26.72-7.63c0.498-3.488 0.782-7.516 0.782-11.611 0-35.149-20.94-65.407-51.026-78.98l-0.546-0.22 11-44.090c37.664-0.299 68.082-30.901 68.082-68.608 0-37.892-30.718-68.61-68.61-68.61s-68.61 30.718-68.61 68.61c0 25.059 13.435 46.981 33.493 58.954l0.314 0.173-11.52 46.080c-17.626 0.098-33.98 5.462-47.59 14.596l0.31-0.196-54.32-47.53c3.897-7.701 6.179-16.789 6.179-26.41 0-32.877-26.653-59.53-59.53-59.53s-59.53 26.653-59.53 59.53c0 32.877 26.653 59.53 59.53 59.53 10.171 0 19.745-2.55 28.119-7.047l-0.318 0.156 54.26 47.48c-8.406 13.12-13.4 29.127-13.4 46.301 0 9.354 1.482 18.362 4.222 26.802l-0.173-0.613-42.14 30.1c-10.445-9.363-24.319-15.087-39.53-15.087-32.767 0-59.33 26.563-59.33 59.33s26.563 59.33 59.33 59.33c32.767 0 59.33-26.563 59.33-59.33 0-4.425-0.484-8.738-1.404-12.887l0.073 0.394 42-30c15.946 17.687 38.939 28.757 64.516 28.757 30.933 0 58.084-16.19 73.443-40.558l0.211-0.358 32.39 9.26c4.615 23.392 24.964 40.79 49.377 40.79 27.769 0 50.28-22.511 50.28-50.28s-22.511-50.28-50.28-50.28c-0.002 0-0.005 0-0.007 0h0zM105.14 420.57c-12.625 0-22.86-10.235-22.86-22.86s10.235-22.86 22.86-22.86c12.625 0 22.86 10.235 22.86 22.86v0c-0.011 12.62-10.239 22.849-22.859 22.86h-0.001zM315.43 73.14c17.673 0 32 14.327 32 32s-14.327 32-32 32c-17.673 0-32-14.327-32-32v0c0-17.673 14.327-32 32-32v0zM114.29 173.71c-0.003 0-0.007 0-0.010 0-12.625 0-22.86-10.235-22.86-22.86s10.235-22.86 22.86-22.86c12.625 0 22.86 10.235 22.86 22.86 0 0.004 0 0.007 0 0.011v-0c-0.017 12.613-10.237 22.833-22.849 22.85h-0.001zM269.71 347.43c-27.774 0-50.29-22.515-50.29-50.29s22.516-50.29 50.29-50.29c27.774 0 50.29 22.516 50.29 50.29v0c-0.029 27.763-22.527 50.262-50.288 50.29h-0.002zM425.14 356.57c-7.577 0-13.72-6.142-13.72-13.72s6.142-13.72 13.72-13.72c7.577 0 13.72 6.142 13.72 13.72 0 0.003 0 0.007 0 0.010v-0c-0.012 7.57-6.149 13.704-13.719 13.71h-0z"></path>
</svg>
