<!-- Generated by IcoMoon.io -->
<svg version="1.1" xmlns="http://www.w3.org/2000/svg" width="512" height="512" viewBox="0 0 512 512">
<title>icon-dc_list_view</title>
<path d="M109.71 384c0 20.197-16.373 36.57-36.57 36.57s-36.57-16.373-36.57-36.57c0-20.197 16.373-36.57 36.57-36.57s36.57 16.373 36.57 36.57z"></path>
<path d="M109.71 256c0 20.197-16.373 36.57-36.57 36.57s-36.57-16.373-36.57-36.57c0-20.197 16.373-36.57 36.57-36.57s36.57 16.373 36.57 36.57z"></path>
<path d="M109.71 128c0 20.197-16.373 36.57-36.57 36.57s-36.57-16.373-36.57-36.57c0-20.197 16.373-36.57 36.57-36.57s36.57 16.373 36.57 36.57z"></path>
<path d="M146.29 109.71h329.14v36.57h-329.14v-36.57z"></path>
<path d="M146.29 237.71h329.14v36.57h-329.14v-36.57z"></path>
<path d="M146.29 365.71h329.14v36.57h-329.14v-36.57z"></path>
</svg>
