<!-- Generated by IcoMoon.io -->
<svg version="1.1" xmlns="http://www.w3.org/2000/svg" width="512" height="512" viewBox="0 0 512 512">
<title>icon-dc_organize</title>
<path d="M475.43 155.43v-36.57h-82.29v-82.29h-36.57v82.29h-82.29v-82.29h-36.57v82.29h-82.29v-82.29h-36.57v82.29h-82.28v36.57h82.29v82.29h-82.29v36.57h82.29v82.29h-82.29v36.57h82.29v82.29h36.57v-82.29h82.29v82.29h36.57v-82.29h82.29v82.29h36.57v-82.29h82.29v-36.57h-82.29v-82.29h82.29v-36.57h-82.29v-82.29h82.28zM237.71 356.57h-82.29v-82.29h82.29v82.29zM237.71 237.71h-82.29v-82.29h82.29v82.29zM356.57 356.57h-82.29v-82.29h82.29v82.29zM356.57 237.71h-82.29v-82.29h82.29v82.29z"></path>
</svg>
