<!-- Generated by IcoMoon.io -->
<svg version="1.1" xmlns="http://www.w3.org/2000/svg" width="512" height="512" viewBox="0 0 512 512">
<title>icon-dc_article</title>
<path d="M36.57 73.14v365.71h438.86v-365.71h-438.86zM438.86 109.71v64h-365.72v-64h365.72zM73.14 402.29v-192h365.71v192h-365.71z"></path>
<path d="M146.29 246.86h219.43v36.57h-219.43v-36.57z"></path>
<path d="M146.29 320h109.71v36.57h-109.71v-36.57z"></path>
<path d="M118.85 141.71c0 7.572-6.138 13.71-13.71 13.71s-13.71-6.138-13.71-13.71c0-7.572 6.138-13.71 13.71-13.71s13.71 6.138 13.71 13.71z"></path>
<path d="M164.57 141.71c0 7.572-6.138 13.71-13.71 13.71s-13.71-6.138-13.71-13.71c0-7.572 6.138-13.71 13.71-13.71s13.71 6.138 13.71 13.71z"></path>
<path d="M210.28 141.71c0 7.572-6.138 13.71-13.71 13.71s-13.71-6.138-13.71-13.71c0-7.572 6.138-13.71 13.71-13.71s13.71 6.138 13.71 13.71z"></path>
</svg>
