<!-- Generated by IcoMoon.io -->
<svg version="1.1" xmlns="http://www.w3.org/2000/svg" width="512" height="512" viewBox="0 0 512 512">
<title>icon-dc_edit</title>
<path d="M418.98 105.7c-27.31-27.18-71.75-27.18-99.070 0l-218.51 214.96-12.35 111.17 111.29-10.94 216.67-218.33c13.92-13.85 21.59-31.71 21.59-50.29 0-17.45-6.97-33.99-19.62-46.57zM183.66 385.78l-53.28 5.24 5.93-53.4 163.64-160.88 45.75 45.75-162.040 163.29zM391.13 176.72l-19.66 19.81-45.43-45.43 21.65-21.28c13.18-11.19 33.060-10.58 45.51 1.81 5.78 5.75 8.83 12.89 8.83 20.65-0.010 8.77-3.85 17.42-10.9 24.44z"></path>
</svg>
