<!-- Generated by IcoMoon.io -->
<svg version="1.1" xmlns="http://www.w3.org/2000/svg" width="512" height="512" viewBox="0 0 512 512">
<title>icon-dc_robot</title>
<path d="M453.62 119.86l-30.43-20.29-30.98 46.47-36.48-0.9-14.070-24.050 16.67-30.57 63.34-5.39-3.1-36.44-82.94 7.060-15.53 28.49-7.68-13.13-87.66 51.28 11.11 18.99-101.85 60.19c-2.55-0.28-5.14-0.43-7.76-0.43-39.37 0-71.4 32.070-71.4 71.48s32.030 71.48 71.4 71.48c4.65 0 9.2-0.46 13.61-1.32l32.35 32.070h-62.95v100.57h292.57v-100.56h-86.17l-104.72-101.17 76.16-44.71 10.020 17.13 87.66-51.27-7.36-12.57 34.020 0.83 42.17-63.24zM91.43 272.62c0-19.25 15.62-34.91 34.83-34.91 19.2 0 34.83 15.66 34.83 34.91s-15.62 34.91-34.83 34.91c-19.21 0.010-34.83-15.66-34.83-34.91zM365.27 438.86h-219.43v-27.43h219.43v27.43zM224.17 374.86l-49.85-49.42c6.49-5.93 11.88-13.040 15.84-20.99l72.87 70.4h-38.86zM191.17 242.9c-3.98-8.68-9.64-16.43-16.57-22.83l79.74-47.12 14.31 24.46-77.48 45.49zM310.24 196.080l-35.44-60.59 24.52-14.34 35.44 60.58-24.52 14.35z"></path>
</svg>
