<!-- Generated by IcoMoon.io -->
<svg version="1.1" xmlns="http://www.w3.org/2000/svg" width="512" height="512" viewBox="0 0 512 512">
<title>icon-dc_twitter_b</title>
<path d="M255.1 206.74c-61.21-9-91.81-18-156.62-77.41 0 0-32.41 50.41 21.6 99.020 0 0-25.2-1.8-32.41-9 0 0-3.6 52.21 55.81 72.010 0 0-5.4 14.4-28.8 12.6 0 0 10.8 34.21 66.61 43.21 0 0-37.81 37.81-108.020 30.6 0 0 63.010 54.010 180.030 25.2 97.22-25.2 138.62-138.62 138.62-138.62s12.6-41.41 9-75.61c0 0 23.4-18 37.81-37.81l-41.41 10.8c0 0 25.2-18 30.6-39.61l-45.010 18c0 0-19.8-30.6-66.61-25.2-14.4 1.8-25.2 7.2-34.21 14.4-19.8 14.4-28.8 37.81-28.8 63.010l1.81 14.41z"></path>
</svg>
