<!-- Generated by IcoMoon.io -->
<svg version="1.1" xmlns="http://www.w3.org/2000/svg" width="512" height="512" viewBox="0 0 512 512">
<title>icon-dc_document_step</title>
<path d="M381 36.57h-234.71v173.72h-109.72v182.85h109.72v82.29h329.14v-342.72zM438.85 438.86h-256v-45.72h256zM113.36 252.34q27.57 0 38.91 20.83v0l-18.080 8.53-1.54-2.43c-1.775-2.702-4.065-4.918-6.747-6.557l-0.093-0.053c-3.080-1.72-7.15-2.58-12.24-2.58q-6.88 0-10.62 2.82c-2.294 1.731-3.763 4.452-3.763 7.517 0 0.17 0.004 0.339 0.013 0.507l-0.001-0.024c-0.004 0.099-0.007 0.214-0.007 0.329 0 2.925 1.492 5.502 3.755 7.011l0.031 0.019q3.78 2.61 13.61 4.54 19 3.84 26.47 8.59 11.76 7.56 11.76 23.1 0 12.1-6.6 19.94-5.37 6.33-15.81 9.35c-4.972 1.4-10.681 2.204-16.578 2.204-0.264 0-0.528-0.002-0.791-0.005l0.040 0q-15.81 0-25.92-5.78t-16-18.28v0l19.39-8.32 1.15 2.5c1.382 2.891 3.266 5.331 5.561 7.305l0.029 0.024q6 4.82 15.54 4.81 7.62 0 12.51-2.82c3.337-1.725 5.58-5.151 5.58-9.1 0-0.159-0.004-0.316-0.011-0.473l0.001 0.022c0.010-0.156 0.016-0.339 0.016-0.522 0-2.94-1.447-5.541-3.669-7.13l-0.026-0.018q-3.68-2.58-14.61-5.12-11.89-2.82-16.95-4.47c-3.266-1.027-6.101-2.334-8.728-3.946l0.168 0.096q-11.41-7.29-11.41-21.59 0-16.5 12.17-24.61 9.27-6.21 23.49-6.22zM243 253.72v18.15h-28.37v82.5h-22.55v-82.5h-28.46v-18.15zM327.5 253.72v18.15h-48.4v22.69h36.9v16.77h-36.88v24.89h50.67v18.15h-73v-100.65zM390.61 253.72l3.71 0.1q16.29 1 24.89 10.55 7.56 8.46 7.56 22 0 14.58-9.28 22.83t-25.92 8.32h-21.22v36.85h-22.55v-100.65zM389.3 271.59h-19v29.15h18.84q7.62 0 11.65-3.81c2.68-2.55 4-6.22 4-11q0-14.29-15.54-14.3zM355 73.14v85.33h83.82v51.82h-256v-137.15z"></path>
</svg>
