<!-- Generated by IcoMoon.io -->
<svg version="1.1" xmlns="http://www.w3.org/2000/svg" width="512" height="512" viewBox="0 0 512 512">
<title>icon-dc_document_bmp</title>
<path d="M381 36.57h-234.71v173.72h-109.72v182.85h109.72v82.29h329.14v-342.72zM438.85 438.86h-256v-45.72h256zM138.36 247l4.060 0.1q17.81 0.92 26.5 10.11 7.080 7.47 7.070 20.2 0 9.27-3.73 14.92t-12.53 9.75q8.72 3.060 13.28 7.46 7.31 7.15 7.3 20.19 0 15.25-9.5 23.42-10.29 8.88-30.72 8.88h-53.75v-115.030zM236.73 247l26.080 78.88 26.19-78.88h36.85v115h-25.3v-86.45l-29.31 86.51h-19l-29.39-86.82v86.82h-23v-115.060zM401.1 247l3.87 0.1q18.88 1 28.82 12.080 8.64 9.66 8.64 25.14 0 16.65-10.61 26.090t-29.62 9.5h-24.28v42.12h-25.77v-115.030zM137.26 311.85h-25.62v30.56h26.56q8.81 0 13.12-4.87 3.54-3.93 3.54-10.53 0-15.17-17.6-15.16zM399.61 267.46h-21.69v33.31h21.53q8.71 0 13.32-4.36t4.59-12.61q0-16.35-17.75-16.34zM135.76 266.67h-24.12v26.87h25.22q14.23 0 14.23-13.51t-15.33-13.36zM355 73.14v85.33h83.82v51.82h-256v-137.15z"></path>
</svg>
