<!-- Generated by IcoMoon.io -->
<svg version="1.1" xmlns="http://www.w3.org/2000/svg" width="512" height="512" viewBox="0 0 512 512">
<title>icon-dc_look_closed</title>
<path d="M383.85 173.71l0.15-15.83c0-33.97-13.55-65.090-38.16-87.63-23.72-21.72-55.62-33.68-89.84-33.68-72.72 0-127.55 52.15-127.55 121.31v15.83h-55.3v301.71h365.71v-301.71h-55.010zM165.020 157.88c0-48.31 39.11-84.74 90.98-84.74 52.12 0 91.43 36.43 91.43 84.56l-0.15 16.010h-182.26v-15.83zM402.29 438.86h-292.58v-228.57h292.57v228.57z"></path>
<path d="M237.71 332.53v33.19h36.57v-33.19c8.28-5.78 13.71-15.37 13.71-26.24 0-17.67-14.33-32-32-32s-32 14.33-32 32c0.010 10.86 5.44 20.45 13.72 26.24z"></path>
</svg>
