<!-- Generated by IcoMoon.io -->
<svg version="1.1" xmlns="http://www.w3.org/2000/svg" width="512" height="512" viewBox="0 0 512 512">
<title>icon-dc_3D_printer</title>
<path d="M328.88 347.94c0-22.55-14.14-36.28-37.41-36.28h-28.8v73.28h28.33c23.53 0 37.88-14.040 37.88-37zM282.88 327.44h8.72c10.76 0 16.39 7.18 16.39 20.81s-5.63 20.9-16.19 20.9h-8.92zM221.18 371.21c-6.86 0-10.55-2.88-12.7-9.74l-17 5c3.080 12.61 14.25 19.68 30.95 19.68 18.15 0 29.52-8.82 29.52-22.86 0-8.3-4.2-13.94-12.71-16.91 7.38-3 11.070-8 11.070-15.17 0-12.5-10.66-20.7-27.16-20.7-14.45 0-24.19 6.25-28.59 18.45l14.76 6c2.87-6.56 6.86-9.54 12.81-9.54 5.53 0 9 3 9 7.69s-3.8 7.89-10 7.89h-5.84v13.7h5.13c7.79 0 11.37 2.46 11.37 7.89 0.030 5.23-4.17 8.62-10.63 8.62zM394.47 402.27v-304.19c0.025-0.641 0.039-1.394 0.039-2.151 0-32.783-26.577-59.36-59.36-59.36-0.123 0-0.245 0.001-0.368 0.001h-154.641c-17-0.58-32.82 5.5-44.44 17.2-10.32 10.466-16.695 24.847-16.695 40.717 0 0.884 0.020 1.763 0.059 2.638l-0.004-0.124v305.31h-36.77v73.16h347.59v-73.2zM210.5 73.18h91.6l-0.14 27-91.59-0.18zM283.1 154.71c-0.614 0.81-1.577 1.327-2.661 1.327-0.12 0-0.238-0.006-0.354-0.018l0.014 0.001h-48.19c-0.101 0.011-0.218 0.017-0.335 0.017-1.081 0-2.042-0.508-2.659-1.299l-0.006-0.007v-36.43l54.19 0.070zM155.62 95.71c-0.026-0.397-0.042-0.861-0.042-1.328 0-5.755 2.306-10.972 6.045-14.775l-0.003 0.003c4.090-4.007 9.697-6.48 15.881-6.48 0.528 0 1.051 0.018 1.57 0.053l-0.070-0.004h13.18l-0.18 45.070h18.64v36.45c0 10.8 9.55 19.58 21.29 19.58h15.47v26.33c-0.093 0.24-0.194 0.445-0.31 0.638l0.010-0.018c-0.196 0.072-0.423 0.116-0.658 0.12h-0.002c-5.61 0.37-24.44 0.25-40.2 0h-0.32c-0.035 0-0.077-0-0.119-0-7.761 0-14.53 4.249-18.107 10.548l-0.054 0.103c-2.66 4.78-4 10.93-4 18.21l-0.090 9.29c-0.24 2.67-0.41 11 5.41 17.69 3.13 3.6 9.1 7.9 19.74 7.9h97.5c0.43 0 2.9 0.18 3.87 1.090 0.418 0.633 0.666 1.409 0.666 2.243 0 0.129-0.006 0.257-0.017 0.382l0.001-0.016v23.58h18.28v-23.57c0-8.19-3.49-13.18-6.41-15.93-6.38-6-15.050-6.12-17.16-6h-96.73c-2.89 0-5-0.56-5.91-1.57-0.641-0.962-1.023-2.143-1.023-3.415 0-0.189 0.008-0.375 0.025-0.559l-0.001 0.024 0.19-11c0-5.53 1.060-8.28 1.7-9.42 0.44-0.734 1.231-1.219 2.135-1.219 0.072 0 0.143 0.003 0.214 0.009l-0.009-0c10 0.14 34.14 0.43 41.66-0.060 9.558-0.488 17.221-7.969 17.995-17.402l0.005-0.068v-27.85h14.42c11.74 0 21.28-8.78 21.28-19.58v-36.37h18.77l0.24-45.27h14.41c0.060-0.001 0.131-0.001 0.202-0.001 6.526 0 12.42 2.704 16.622 7.054l0.007 0.007c3.892 4.067 6.288 9.593 6.288 15.679 0 0.401-0.010 0.8-0.031 1.197l0.002-0.055v305.27h-202.3v-305.7zM411.62 457.16h-311v-36.6h311z"></path>
</svg>
