<!-- Generated by IcoMoon.io -->
<svg version="1.1" xmlns="http://www.w3.org/2000/svg" width="512" height="512" viewBox="0 0 512 512">
<title>icon-dc_message</title>
<path d="M36.57 91.43v274.29h73.14v103.52l90.58-103.52h275.13v-274.29h-438.85zM438.86 329.14h-255.16l-37.42 42.76v-42.76h-73.14v-201.14h365.71v201.14z"></path>
<path d="M182.86 228.57c0 15.149-12.281 27.43-27.43 27.43s-27.43-12.281-27.43-27.43c0-15.149 12.281-27.43 27.43-27.43s27.43 12.281 27.43 27.43z"></path>
<path d="M283.43 228.57c0 15.149-12.281 27.43-27.43 27.43s-27.43-12.281-27.43-27.43c0-15.149 12.281-27.43 27.43-27.43s27.43 12.281 27.43 27.43z"></path>
<path d="M384 228.57c0 15.149-12.281 27.43-27.43 27.43s-27.43-12.281-27.43-27.43c0-15.149 12.281-27.43 27.43-27.43s27.43 12.281 27.43 27.43z"></path>
</svg>
