<!-- Generated by IcoMoon.io -->
<svg version="1.1" xmlns="http://www.w3.org/2000/svg" width="512" height="512" viewBox="0 0 512 512">
<title>icon-dc_add_folder</title>
<path d="M429.7 155h-54.8v-82h-176l-43.26-36.43h-119v298.7c-0.2 4.41 0.080 17.63 9.61 28 4.66 5.060 13.13 11.090 27.090 11.090h247.52l1.78-0.36c17.85-3.59 27.26-14.83 30.21-24zM73.18 232.67v-159.52h69.11l43.21 36.38h152.82v45.55l-236.76 0.14zM318.63 337c-0.503 0.298-1.084 0.548-1.699 0.718l-0.051 0.012h-243.25l53.49-146 248.88-0.1zM429.63 393.080v-45.69h-36.63v45.73h-45.71v36.58h45.71v45.73h36.58v-45.73h45.78v-36.58z"></path>
</svg>
