<!-- Generated by IcoMoon.io -->
<svg version="1.1" xmlns="http://www.w3.org/2000/svg" width="512" height="512" viewBox="0 0 512 512">
<title>icon-dc_service_stock</title>
<path d="M301.14 292.29l-23.44 5.81c-2.44-4.090-5.21-7.93-8.32-11.49l12.75-20.47-25.41-18.44-15.46 18.35c-4.32-1.86-8.89-3.32-13.57-4.38l-1.73-23.96h-31.38l-1.72 23.96c-4.7 1.060-9.25 2.51-13.59 4.38l-15.46-18.35-25.4 18.45 12.77 20.47c-3.11 3.56-5.89 7.41-8.33 11.49l-23.45-5.81-9.7 29.85 22.43 9.1c-0.2 2.27-0.36 4.56-0.36 6.88 0 2.44 0.15 4.84 0.37 7.24l-22.44 9.1 9.7 29.83 23.63-5.84c2.44 4.030 5.18 7.81 8.27 11.31l-12.89 20.68 25.41 18.45 15.67-18.61c4.26 1.82 8.74 3.22 13.35 4.28l1.73 24.29h31.39l1.75-24.31c4.61-1.050 9.080-2.46 13.35-4.28l15.67 18.61 25.41-18.45-12.89-20.68c3.080-3.52 5.83-7.3 8.26-11.31l23.63 5.84 9.69-29.82-22.44-9.1c0.22-2.4 0.37-4.8 0.37-7.24 0-2.34-0.15-4.62-0.36-6.88l22.43-9.1-9.69-29.85zM210.3 393.14c-30.32 0-54.91-24.58-54.91-54.86 0-30.31 24.58-54.86 54.91-54.86 30.31 0 54.9 24.55 54.9 54.86 0 30.3-24.59 54.86-54.9 54.86z"></path>
<path d="M447.82 36.57h-383.63c-15.23 0-27.62 12.54-27.62 27.95v382.95c0 15.41 12.39 27.95 27.62 27.95h383.63c15.22 0 27.61-12.54 27.61-27.95v-382.95c0-15.41-12.39-27.95-27.61-27.95zM457.14 445.75c0 6.28-4.96 11.39-11.050 11.39h-380.18c-6.1 0-11.060-5.11-11.060-11.39v-379.5c0-6.28 4.96-11.39 11.060-11.39h380.18c6.090 0 11.050 5.11 11.050 11.39v379.5z"></path>
<path d="M237.71 82.29h-54.85v53.33h-27.43v-53.33h-54.86v128h137.14z"></path>
<path d="M310.86 155.43l-36.57 63.020 36.57 64.98h82.29l36.57-64.98-36.57-63.020h-82.29zM352 251.43c-17.67 0-32-14.33-32-32s14.33-32 32-32 32 14.33 32 32-14.33 32-32 32z"></path>
</svg>
