<!-- Generated by IcoMoon.io -->
<svg version="1.1" xmlns="http://www.w3.org/2000/svg" width="512" height="512" viewBox="0 0 512 512">
<title>icon-dc_GoTo_frame</title>
<path d="M475.43 64.52v382.96c0 15.41-12.39 27.95-27.61 27.95h-383.63c-15.23 0-27.62-12.54-27.62-27.95v-382.96c0-15.41 12.39-27.95 27.62-27.95h383.63c15.22 0 27.61 12.54 27.61 27.95zM457.14 66.25c0-6.28-4.96-11.39-11.050-11.39h-380.18c-6.1 0-11.060 5.11-11.060 11.39v379.51c0 6.28 4.96 11.39 11.060 11.39h380.18c6.090 0 11.050-5.11 11.050-11.39v-379.51z"></path>
<path d="M149.11 330.33h16.99l15.54-80.18h-51.59l-4.35 22.17h21.55l-0.83 3.94c-4.77 21.34-14.090 32.11-28.18 32.11-13.25 0-20.090-9.32-20.090-26.93 0-14.090 3.94-35.010 9.53-50.76 6.22-18.020 14.92-26.31 26.93-26.31 11.81 0 16.78 7.040 19.27 25.9l29.21-8.080c-2.070-13.050-4.97-20.72-10.56-27.55-7.87-9.53-20.3-14.71-35.84-14.71-22.38 0-40.82 10.36-52.63 29.83-11.39 18.44-18.23 43.92-18.23 67.75 0 33.97 16.99 55.11 44.34 55.11 16.78 0 28.8-7.67 37.080-23.62l1.86 21.33z"></path>
<path d="M241.92 219.9c-15.74 0-28.58 6.84-38.12 19.89-8.5 12.22-14.71 32.53-14.71 49.52 0 27.14 15.33 43.51 41.020 43.51 13.67 0 25.28-5.18 34.39-15.54 10.77-12.22 18.23-34.39 18.23-54.9 0.010-26.11-15.53-42.48-40.81-42.48zM241.51 242.070c7.25 0 11.4 5.59 11.4 15.54 0 10.98-3.31 27.76-8.080 39.57-3.32 8.7-8.5 13.47-14.92 13.47-7.46 0-10.98-5.39-10.98-16.78 0-10.98 3.52-27.97 7.87-38.95 3.31-8.29 8.49-12.85 14.71-12.85z"></path>
<path d="M298.77 330.33h31.080l24.030-123.9h31.9l4.77-24.23h-95.1l-4.56 24.23h31.92z"></path>
<path d="M406.090 219.9c-15.74 0-28.59 6.84-38.12 19.89-8.49 12.22-14.7 32.53-14.7 49.52 0 27.14 15.33 43.51 41.020 43.51 13.67 0 25.28-5.18 34.39-15.54 10.77-12.22 18.23-34.39 18.23-54.9-0.010-26.11-15.55-42.48-40.82-42.48zM405.67 242.070c7.25 0 11.39 5.59 11.39 15.54 0 10.98-3.31 27.76-8.080 39.57-3.32 8.7-8.5 13.47-14.92 13.47-7.46 0-10.98-5.39-10.98-16.78 0-10.98 3.52-27.97 7.87-38.95 3.33-8.29 8.5-12.85 14.72-12.85z"></path>
<path d="M313.38 415.72h-207.82c-4.56 0-8.24-3.6-8.24-8.050s3.69-8.050 8.24-8.050h210.93c0-0.010-1.32 6.92-3.11 16.1z"></path>
<path d="M320.84 377.25h-182.61c-4.56 0-8.24-3.69-8.24-8.24s3.69-8.24 8.24-8.24h185.81l-3.2 16.48z"></path>
<path d="M371.99 113.58h-160.4c-4.56 0-8.24-3.69-8.24-8.24s3.69-8.24 8.24-8.24h163.59l-3.19 16.48z"></path>
<path d="M364.54 152.040h-268.35c-4.55 0-8.24-3.69-8.24-8.24s3.69-8.24 8.24-8.24h271.53l-3.18 16.48z"></path>
</svg>
