<!-- Generated by IcoMoon.io -->
<svg version="1.1" xmlns="http://www.w3.org/2000/svg" width="512" height="512" viewBox="0 0 512 512">
<title>icon-dc_box_open</title>
<path d="M475.2 209.45l-47.3-78.84-172.4-57.47-171.63 57.47-47.3 78.84 36.29 12.090v153.64l182.64 63.68 183.32-63.68v-153.61zM91.62 189.080l12.67-21.080 123.71 41.45-12.7 21.12zM407.48 168l12.67 21.12-124.46 41.45-12.69-21.12zM357.58 145.92l-102.080 33.95-8.17-2.64-93.91-31.31 102.080-34zM109.58 233.83l122 40.94 5.5-9.17v128l-127.49-44.55zM402.1 349.060l-128.24 44.54v-128l5.5 9.17 122.74-40.95z"></path>
</svg>
