<!-- Generated by IcoMoon.io -->
<svg version="1.1" xmlns="http://www.w3.org/2000/svg" width="512" height="512" viewBox="0 0 512 512">
<title>icon-dc_share</title>
<path d="M379.43 291.77c-31.38 0-58.94 16.58-74.43 41.43l-99.91-49.95c3.86-9.87 6-20.59 6-31.81 0-8.32-1.19-16.36-3.36-23.99l97.27-48.65c15.49 24.85 43.060 41.43 74.43 41.43 48.34 0 87.66-39.32 87.66-87.66s-39.32-87.66-87.66-87.66-87.66 39.32-87.66 87.66c0 3.92 0.29 7.78 0.79 11.56l-102 51c-16.090-19.16-40.21-31.37-67.13-31.37-48.34 0-87.66 39.32-87.66 87.66s39.32 87.66 87.66 87.66c23.86 0 45.52-9.6 61.34-25.12l107.78 53.89c-0.5 3.79-0.79 7.64-0.79 11.56 0 48.34 39.32 87.66 87.66 87.66s87.66-39.32 87.66-87.66-39.32-87.64-87.65-87.64zM379.43 83.090c27.28 0 49.48 22.2 49.48 49.48s-22.2 49.48-49.48 49.48c-27.28 0-49.48-22.2-49.48-49.48s22.19-49.48 49.48-49.48zM123.43 300.91c-27.28 0-49.48-22.2-49.48-49.48s22.2-49.48 49.48-49.48 49.48 22.2 49.48 49.48c0 27.28-22.2 49.48-49.48 49.48zM379.43 428.91c-27.28 0-49.48-22.2-49.48-49.48s22.2-49.48 49.48-49.48c27.28 0 49.48 22.2 49.48 49.48s-22.2 49.48-49.48 49.48z"></path>
</svg>
