<!-- Generated by IcoMoon.io -->
<svg version="1.1" xmlns="http://www.w3.org/2000/svg" width="512" height="512" viewBox="0 0 512 512">
<title>icon-dc_question</title>
<path d="M316.9 117.57c-14.010-13.22-33.3-20.2-55.78-20.2-22.57 0-42.66 7.030-58.11 20.34-15.52 13-23.58 27.56-28.7 51.89l-0.48 2.27-1.32 6.28 36.94 6.26 1.32-5.66 0.48-2.050c6.8-29.23 22.99-43.44 49.49-43.44 23.81 0 38.030 13.79 38.030 36.89 0 17.89-5.86 27.5-26.1 42.86-32.060 24.54-44.090 36.77-44.090 70.57v18.12h36v-16.19c0-20.4 6.64-26.85 28.96-43.15 15.2-11.090 19.9-15.090 26.5-22.51 12.29-14.040 18.24-30.41 18.24-50.090 0.010-20.64-7.59-39.18-21.38-52.19z"></path>
<path d="M247.46 338.29c-15.38 0-27.43 12.050-27.43 27.43 0 14.87 12.56 27.43 27.43 27.43s27.43-12.56 27.43-27.43-12.56-27.43-27.43-27.43z"></path>
</svg>
