<!-- Generated by IcoMoon.io -->
<svg version="1.1" xmlns="http://www.w3.org/2000/svg" width="512" height="512" viewBox="0 0 512 512">
<title>icon-dc_podcast</title>
<path d="M256 45.71c-115.95 0-210.29 94.020-210.29 209.58 0 40.99 10.45 79.36 30.21 110.97l31.010-19.39c-16.35-26.16-24.65-56.97-24.65-91.58 0-95.4 77.93-173.010 173.71-173.010s173.72 77.62 173.72 173.020c0 34.61-8.29 65.42-24.65 91.58l31.010 19.39c19.76-31.61 30.21-69.98 30.21-110.97 0.010-115.57-94.33-209.59-210.28-209.59z"></path>
<path d="M301.71 219.43c0 25.245-20.465 45.71-45.71 45.71s-45.71-20.465-45.71-45.71c0-25.245 20.465-45.71 45.71-45.71s45.71 20.465 45.71 45.71z"></path>
<path d="M192 374.86h27.43v62.47l73.14 1.53v-64h27.43v-91.43h-128z"></path>
</svg>
