<!-- Generated by IcoMoon.io -->
<svg version="1.1" xmlns="http://www.w3.org/2000/svg" width="512" height="512" viewBox="0 0 512 512">
<title>icon-dc_document_sat</title>
<path d="M381 36.57h-234.71v173.72h-109.72v182.85h109.72v82.29h329.14v-342.72zM438.85 438.86h-256v-45.72h256zM141.32 245.46q31.52 0 44.47 23.8v0l-20.66 9.74-1.77-2.78c-2.026-3.092-4.645-5.628-7.714-7.5l-0.107-0.060q-5.26-2.94-14-2.94-7.86 0-12.14 3.22c-2.618 1.978-4.293 5.086-4.293 8.584 0 0.185 0.004 0.368 0.014 0.551l-0.001-0.026c-0.004 0.111-0.007 0.241-0.007 0.372 0 3.344 1.704 6.29 4.292 8.017l0.035 0.022q4.32 3 15.55 5.19 21.77 4.39 30.25 9.82 13.44 8.64 13.44 26.4 0 13.83-7.54 22.78-6.14 7.23-18.070 10.69c-5.676 1.597-12.195 2.515-18.927 2.515-0.307 0-0.613-0.002-0.919-0.005l0.047 0q-18.070 0-29.63-6.6t-18.3-20.9v0l22.15-9.5 1.32 2.86c1.581 3.3 3.73 6.085 6.347 8.342l0.032 0.027q6.84 5.51 17.76 5.5 8.73 0 14.3-3.22c3.817-1.976 6.381-5.897 6.381-10.415 0-0.178-0.004-0.354-0.012-0.53l0.001 0.025q0-5.82-4.21-8.76t-16.69-5.85q-13.61-3.22-19.37-5.11c-3.734-1.18-6.972-2.673-9.975-4.511l0.195 0.111q-13.050-8.32-13-24.67 0-18.86 13.91-28.13 10.58-7.070 26.84-7.060zM269.080 247l41.48 115h-27.42l-7.38-21.92h-46.67l-7.47 21.92h-24.2l42.12-115zM405.24 247v20.74h-32.45v94.29h-25.79v-94.26h-32.51v-20.77zM252.58 271.39l-17.29 50.44h34.42zM355 73.14v85.33h83.82v51.82h-256v-137.15z"></path>
</svg>
