<!-- Generated by IcoMoon.io -->
<svg version="1.1" xmlns="http://www.w3.org/2000/svg" width="512" height="512" viewBox="0 0 512 512">
<title>icon-dc_document_vrml</title>
<path d="M381 36.57h-234.71v173.72h-109.72v182.85h109.72v82.29h329.14v-342.72zM438.85 438.86h-256v-45.72h256zM82.34 255.93l21.38 66.69 21.28-66.69h20.12l-31.5 91.5h-21.78l-31.5-91.5zM195.78 255.93l3.62 0.11q14 0.87 21.38 8.7 6.38 6.75 6.38 17.38 0 9.24-4.19 14.87t-13.060 8.31q6.68 2.13 9.68 5.88t4.94 12.37q4.25 18.63 7.5 23.38v0 0.5h-21.030l-0.83-1.63q-2.92-6.26-6-20.31-1.56-7.070-4.85-10t-9.59-3h-13.89v34.94h-20.25v-91.5zM276.34 255.93l20.75 62.75 20.82-62.75h29.31v91.5h-20.13v-68.81l-23.31 68.81h-15.12l-23.38-69.060v69.060h-18.28v-91.5zM388.66 255.93v75h40.34v16.5h-60.84v-91.5zM194.16 271.93h-18.32v25.31h16.88q7.070 0 10.78-3.31t3.72-9.5q0-12.49-13.060-12.5zM355 73.14v85.33h83.82v51.82h-256v-137.15z"></path>
</svg>
