<!-- Generated by IcoMoon.io -->
<svg version="1.1" xmlns="http://www.w3.org/2000/svg" width="512" height="512" viewBox="0 0 512 512">
<title>icon-dc_document_csv</title>
<path d="M381 36.57h-234.71v173.72h-109.72v182.85h109.72v82.29h329.14v-342.72zM174 353.28q-14.070 10.37-35.68 10.36-28.53 0-44.36-18.48-13.74-16-13.74-41.78 0-28.94 18.16-46.21 15.84-15 39.62-15t38 12.7c4.966 4.803 9.106 10.422 12.21 16.647l0.16 0.353-28.52 12.050q-3.78-8.44-9-12.050t-13.34-3.62q-12.37 0-18.4 10-5.31 8.76-5.31 24.67 0 18.17 7.070 27 6.1 7.73 17.28 7.72 8.52 0 13.82-3.66t9.080-12.090l28.61 11.81c-3.675 7.882-8.988 14.45-15.538 19.49l-0.122 0.090zM438.87 438.86h-256v-45.72h256zM262.66 321.62q-3.74-2.49-12.89-4.18-12.78-2.49-19.090-4.34c-4.409-1.281-8.233-2.894-11.817-4.887l0.287 0.147q-15.83-8.76-15.83-28.85 0-18.64 13.42-28.61 11.73-8.76 31-8.76 33.42 0 47.25 22.26l-25.31 13q-3.7-5.79-8.44-8c-3.16-1.49-7.56-2.25-13.18-2.25q-14.62 0-14.63 9.080c-0.002 0.064-0.003 0.139-0.003 0.216 0 2.708 1.437 5.080 3.59 6.396l0.033 0.019q3.62 2.39 13.18 4.22 14 2.65 20.93 4.78c4.571 1.363 8.55 3.156 12.226 5.398l-0.226-0.128q14.3 8.83 14.3 28 0 19.94-13.9 29.89-12.14 8.69-33.51 8.68-20.82 0-33.35-6.26c-7.849-3.967-14.129-10.067-18.21-17.54l-0.11-0.22 27.16-13.18q3.38 7.31 9.8 10 5 2.17 13.74 2.17t13.26-3c2.412-1.452 4.001-4.056 4.001-7.032 0-0.041-0-0.083-0.001-0.125v0.007c0.003-0.087 0.005-0.188 0.005-0.29 0-2.779-1.459-5.217-3.653-6.591l-0.033-0.019zM302.4 244h35l24.67 80.12 24.62-80.12h31.42l-39.69 117.63h-36zM438.86 210.3h-256v-137.16h172.19v85.34h83.81z"></path>
</svg>
