<!-- Generated by IcoMoon.io -->
<svg version="1.1" xmlns="http://www.w3.org/2000/svg" width="512" height="512" viewBox="0 0 512 512">
<title>icon-dc_ActiveShuttle</title>
<path d="M475.34 401.82v-51.33c0-35.6-28.34-48.38-43.32-50.16l-1.15-0.14-156.54 1.28-0.43-218.78c0.46-21-7.75-32.18-14.73-37.85-14.17-11.51-31.66-7.84-33.61-7.34l-0.41 0.1c-1.22 0.32-122.15 31.83-149.25 38.6-33 8.24-39.75 34.070-38.76 47.73-0.060 19-0.76 261.69-0.52 282.29 0.38 28.11 26.38 41.48 50.38 42.010h54.14c0-30.95 25.090-56.040 56.040-56.040s56.040 25.090 56.040 56.040v0h16.9c12.7 0 134.51 0 162.13-0.64 17.24-0.39 27.29-7.78 32.69-13.91 10.65-12.040 10.73-26.87 10.4-31.86zM237.73 301.63l-63.86 0.080v-87.29c0-0.35 0-0.65 0-0.91l63.62-15.32zM437.51 409.5c-0.6 0.68-2.5 1.43-6.060 1.51-22.85 0.51-114.83 0.58-149.18 0.61-14.551-33.245-47.16-56.051-85.095-56.051s-70.543 22.806-84.862 55.456l-0.233 0.595h-24.45c-3.19-0.12-14.37-2.090-14.41-5.85-0.17-14.56 0.15-146.86 0.36-225.18l62.53-15.24 0.73-30.2-63.18 15.4c0-16.47 0.070-26.85 0.080-27.36v-1.080l-0.12-1.080c0-0.060-0.6-6.4 11.16-9.34 26.49-6.6 141.64-36.6 149.22-38.57 0.071-0.002 0.156-0.003 0.24-0.003 0.65 0 1.286 0.063 1.902 0.183l-0.063-0.010c0.33 0.58 1.37 2.91 1.23 8.74v0.25l0.15 78.29-71.23 17.15c-12.27 1.86-28.94 12.68-28.94 36.7v123.93l100.53-0.13v0.15l190.79-1.56c3.24 0.62 10.16 3.19 10.16 13.68v52l0.1 1.9c0 0.25-0.18 3.77-1.36 5.11zM197.18 410c-16.017 0-29 12.983-29 29s12.983 29 29 29c16.017 0 29-12.983 29-29v0c0-16.017-12.983-29-29-29v0z"></path>
</svg>
