<!-- Generated by IcoMoon.io -->
<svg version="1.1" xmlns="http://www.w3.org/2000/svg" width="512" height="512" viewBox="0 0 512 512">
<title>icon-dc_callout_hint</title>
<path d="M256 36.57v0c-121.19 0-219.43 98.24-219.43 219.43v0c0 121.19 98.24 219.43 219.43 219.43v0c121.19 0 219.43-98.24 219.43-219.43v0c0-121.19-98.24-219.43-219.43-219.43zM228.57 128h54.86v146.29h-54.86v-146.29zM255.81 383.62c-20.060 0-36.38-16.32-36.38-36.38s16.32-36.38 36.38-36.38c20.060 0 36.38 16.32 36.38 36.38s-16.32 36.38-36.38 36.38z"></path>
</svg>
