<!-- Generated by IcoMoon.io -->
<svg version="1.1" xmlns="http://www.w3.org/2000/svg" width="512" height="512" viewBox="0 0 512 512">
<title>icon-dc_AR</title>
<path d="M474.75 363.34l-0.12-0.63-31.78-121.88c-3.844-18.067-19.66-31.426-38.599-31.44h-57.312v-31.6l-91.18-49.79-91.18 49.79v31.6h-56.83c-18.94 0.014-34.756 13.373-38.554 31.181l-0.046 0.258-31.62 121.27-0.28 1.24c-0.426 2.177-0.67 4.68-0.67 7.24 0 21.771 17.649 39.42 39.42 39.42 0 0 0.001 0 0.001 0h360c21.769-0.003 39.414-17.651 39.414-39.42 0-2.567-0.245-5.077-0.714-7.507l0.039 0.248zM255.75 148.78l63 34.42-63 34.43-63-34.43zM328.7 198.57v86.78l-63.82 34.85v-86.77zM182.8 198.57l63.83 34.86v86.77l-63.83-34.85zM438.27 372.48c-0.525 0.649-1.321 1.060-2.214 1.060-0.017 0-0.033 0-0.049-0h-360.007c-1.627-0.003-2.945-1.322-2.945-2.95 0-0.060 0.002-0.119 0.005-0.178l-0.001 0.008 31.53-120.91 0.28-1.24c0.285-1.363 1.466-2.376 2.888-2.4h56.832v50.3l91.17 49.83 91.18-49.79v-50.3h57.31c1.424 0.024 2.604 1.037 2.887 2.381l0.003 0.019 0.12 0.62 31.74 121.49c0.003 0.047 0.005 0.103 0.005 0.158 0 0.733-0.279 1.401-0.736 1.904l0.002-0.002zM388 291.12c-7.56 0-13.68 4.080-13.68 9.12s6.12 9.12 13.68 9.12 13.67-4.080 13.67-9.12-6.14-9.12-13.67-9.12zM128 282.27c-0.645-0.163-1.385-0.256-2.147-0.256-4.249 0-7.82 2.902-8.838 6.832l-0.014 0.063-6.84 27.36c-0.173 0.664-0.272 1.426-0.272 2.212 0 4.248 2.906 7.816 6.84 8.825l0.063 0.014c0.666 0.177 1.431 0.279 2.219 0.28h0.001c4.249-0.004 7.817-2.913 8.826-6.847l0.014-0.063 6.84-27.36c0.169-0.658 0.267-1.414 0.267-2.192 0-4.271-2.933-7.857-6.894-8.854l-0.063-0.014z"></path>
</svg>
