<!-- Generated by IcoMoon.io -->
<svg version="1.1" xmlns="http://www.w3.org/2000/svg" width="512" height="512" viewBox="0 0 512 512">
<title>icon-dc_folder_image_empty</title>
<path d="M421.22 201.14v-91.43h-219.66l-46.8-36.57h-118.19v282.78c0 26.43 19.93 46.37 46.37 46.37h45.060v73.14h347.43v-274.29h-54.21zM231.040 365.71l18.76-15.35 189.050 82.2v6.3h-274.28v-18.76l66.47-54.39zM413.78 381.78l-169.86-73.85-79.34 64.92v-135.13h274.28v154.97l-25.080-10.91zM82.94 365.71c-6.13 0-9.8-3.66-9.8-9.79v-246.21h69.020l46.8 36.57h195.69v54.86h-256.65v164.57h-45.060z"></path>
<path d="M361.14 256c-17.67 0-32 14.33-32 32s14.33 32 32 32c9.31 0 17.66-4 23.51-10.34 5.25-5.7 8.49-13.29 8.49-21.66s-3.24-15.95-8.49-21.66c-5.84-6.34-14.2-10.34-23.51-10.34z"></path>
</svg>
