<!-- Generated by IcoMoon.io -->
<svg version="1.1" xmlns="http://www.w3.org/2000/svg" width="512" height="512" viewBox="0 0 512 512">
<title>icon-dc_document_xls</title>
<path d="M381 36.57h-234.71v173.71h-109.72v182.86h109.71v82.29h329.14v-342.72l-94.42-96.14zM137.19 319.92l-24.6 40.95h-27.41l38.46-58.71-35.58-55.28h30.29l21.18 36.36 21.1-36.36h27.25l-34.41 54.5 38.53 59.5h-30.44l-24.37-40.96zM438.86 438.86h-256v-45.71h256v45.71zM299.76 340.32v20.55h-75.76v-113.98h25.54v93.43h50.22zM397.66 319.88c-2.78-1.95-8.29-3.88-16.54-5.8-8.98-2.13-15.38-3.82-19.19-5.060-3.82-1.25-7.050-2.7-9.69-4.36-8.62-5.5-12.92-13.65-12.92-24.45 0-12.46 4.59-21.75 13.78-27.87 7.010-4.67 15.88-7.010 26.63-7.010 20.81 0 35.5 7.86 44.070 23.59l-20.48 9.65c-2.85-4.88-6.020-8.29-9.5-10.24s-8.1-2.92-13.86-2.92c-5.19 0-9.2 1.060-12.030 3.19s-4.24 5.14-4.24 9.030c0 3.58 1.43 6.36 4.28 8.33s7.99 3.69 15.42 5.14c14.38 2.91 24.37 6.15 29.98 9.73 8.88 5.71 13.31 14.43 13.31 26.16 0 9.14-2.49 16.66-7.47 22.58-4.050 4.78-10.020 8.3-17.91 10.59-5.87 1.66-12.41 2.49-19.62 2.49-11.94 0-21.72-2.18-29.35-6.54s-13.68-11.26-18.14-20.71l21.96-9.42c2.080 4.98 4.62 8.69 7.63 11.13 4.52 3.63 10.38 5.45 17.6 5.45 5.76 0 10.48-1.060 14.17-3.19 4.2-2.34 6.31-5.94 6.31-10.82-0.030-3.83-1.42-6.72-4.2-8.67zM438.86 210.29h-256v-137.15h172.19v85.33h83.81v51.82z"></path>
</svg>
