<!-- Generated by IcoMoon.io -->
<svg version="1.1" xmlns="http://www.w3.org/2000/svg" width="512" height="512" viewBox="0 0 512 512">
<title>icon-dc_customerservice</title>
<path d="M424.34 158.77c-23.51-72.54-91-122.2-168.34-122.2s-144.83 49.66-168.34 122.2c-29.25 6.89-51.090 33.19-51.090 64.51v62.74c0 36.55 29.74 66.29 66.29 66.29h2.53c36.55 0 66.29-29.74 66.29-66.29v-62.74c0-29.35-19.18-54.29-45.66-62.98 21.28-52.18 72.16-87.16 129.98-87.16s108.7 34.98 129.99 87.15c-26.48 8.69-45.66 33.63-45.66 62.98v62.74c0 31.93 22.7 58.66 52.81 64.91v29.59c0 8.030-6.53 14.56-14.56 14.56h-122.58v36.57h122.59c28.19 0 51.13-22.94 51.13-51.13v-31.49c26.51-8.68 45.71-33.63 45.71-63v-62.74c0-31.32-21.84-57.62-51.090-64.51zM135.1 223.28v62.74c0 16.38-13.33 29.71-29.71 29.71h-2.53c-16.39 0-29.71-13.33-29.71-29.71v-62.74c0-16.38 13.33-29.71 29.71-29.71h2.53c16.38-0.010 29.71 13.32 29.71 29.71zM438.86 286.020c0 16.38-13.33 29.71-29.71 29.71h-2.53c-16.39 0-29.71-13.33-29.71-29.71v-62.74c0-16.38 13.33-29.71 29.71-29.71h2.53c16.39 0 29.71 13.33 29.71 29.71v62.74z"></path>
</svg>
