<!-- Generated by IcoMoon.io -->
<svg version="1.1" xmlns="http://www.w3.org/2000/svg" width="512" height="512" viewBox="0 0 512 512">
<title>icon-dc_eye_hide</title>
<path d="M381.96 155.9l93.43-93.43-25.86-25.86-101.19 101.19c-26.49-11.65-57.33-19.36-92.56-19.36-140.89 0-211.47 123.39-214.4 128.64l-4.98 8.92 4.99 8.92c1.87 3.34 31.15 54.54 88.51 91.33l-93.29 93.29 25.86 25.86 101.070-101.070c26.41 11.58 57.14 19.24 92.24 19.24 140.88 0 211.64-123.37 214.58-128.62l5.010-8.94-5.010-8.94c-1.87-3.35-31.15-54.4-88.4-91.17zM79.040 256c18.010-26.23 78.040-100.99 176.74-100.99 23.62 0 45.010 4.31 64.16 11.18l-27.19 27.19c-10.8-6.38-23.38-10.050-36.81-10.050-40.070 0-72.67 32.6-72.67 72.67 0 13.43 3.67 26.010 10.050 36.81l-36.55 36.55c-40.7-24.090-66.87-57.56-77.73-73.36zM292.040 256c0 19.9-16.19 36.1-36.1 36.1-3.11 0-6.12-0.44-9-1.18l43.92-43.92c0.75 2.88 1.18 5.89 1.18 9zM219.85 256c0-19.9 16.19-36.1 36.1-36.1 3.14 0 6.18 0.45 9.080 1.2l-43.98 43.98c-0.75-2.9-1.2-5.94-1.2-9.080zM255.78 356.99c-23.49 0-44.77-4.27-63.84-11.080l27.26-27.26c10.79 6.35 23.34 10.010 36.74 10.010 40.070 0 72.67-32.6 72.67-72.67 0-13.4-3.66-25.95-10.010-36.74l36.47-36.47c40.6 24.060 66.74 57.42 77.62 73.22-18.070 26.25-78.22 100.99-176.91 100.99z"></path>
</svg>
