<!-- Generated by IcoMoon.io -->
<svg version="1.1" xmlns="http://www.w3.org/2000/svg" width="512" height="512" viewBox="0 0 512 512">
<title>icon-dc_user</title>
<path d="M319.26 277.28c31.75-20.73 52.79-56.56 52.79-97.22 0-64-52.060-116.060-116.050-116.060s-116.060 52.060-116.060 116.060c0 40.67 21.040 76.49 52.79 97.22-64.5 25.34-110.31 88.19-110.31 161.58h36.58c0-75.54 61.46-137 137-137s137 61.46 137 137h36.57c0-73.39-45.81-136.24-110.31-161.58zM256 100.57c43.83 0 79.48 35.66 79.48 79.48s-35.66 79.48-79.48 79.48c-43.83 0-79.48-35.66-79.48-79.48s35.65-79.48 79.48-79.48z"></path>
</svg>
