<!-- Generated by IcoMoon.io -->
<svg version="1.1" xmlns="http://www.w3.org/2000/svg" width="512" height="512" viewBox="0 0 512 512">
<title>icon-dc_certificate</title>
<path d="M256 36.57c-75.62 0-137.14 61.52-137.14 137.14s61.52 137.15 137.14 137.15 137.14-61.52 137.14-137.14-61.52-137.15-137.14-137.15zM256 274.29c-55.46 0-100.57-45.12-100.57-100.57s45.11-100.58 100.57-100.58 100.57 45.12 100.57 100.57-45.11 100.58-100.57 100.58z"></path>
<path d="M192 329.14v146.29l64-54.86 64 54.86v-146.29c-18.33 11.57-40.72 18.29-64 18.29s-45.67-6.72-64-18.29z"></path>
</svg>
