<!-- Generated by IcoMoon.io -->
<svg version="1.1" xmlns="http://www.w3.org/2000/svg" width="512" height="512" viewBox="0 0 512 512">
<title>icon-dc_rss</title>
<path d="M156.040 355.83c8.86 8.85 14.25 20.85 14.28 34.22-0.030 13.34-5.42 25.35-14.25 34.16l-0.030 0.020c-8.84 8.8-20.92 14.18-34.35 14.18-13.41 0-25.46-5.4-34.3-14.2-8.82-8.81-14.25-20.8-14.25-34.16 0-13.37 5.43-25.4 14.25-34.23v0.010c8.84-8.81 20.89-14.23 34.3-14.23 13.43 0 25.49 5.44 34.35 14.23zM156.040 355.83v0c0.020 0.010 0.020 0.010 0.020 0.010l-0.020-0.010zM87.39 424.22c0 0 0 0 0-0.020-0.020 0-0.020 0-0.020 0l0.020 0.020zM73.18 197.5v69.83c45.59 0.030 88.71 17.94 120.97 50.25 32.26 32.21 50.1 75.4 50.17 121.14h0.020v0.13h70.12c-0.060-66.52-27.090-126.77-70.81-170.52-43.71-43.73-103.94-70.79-170.47-70.83zM73.31 73.14v69.8c162.96 0.12 295.44 132.8 295.55 295.92h70c-0.050-100.82-41.020-192.16-107.25-258.42-66.24-66.25-157.52-107.25-258.3-107.3z"></path>
</svg>
