<!-- Generated by IcoMoon.io -->
<svg version="1.1" xmlns="http://www.w3.org/2000/svg" width="512" height="512" viewBox="0 0 512 512">
<title>icon-dc_connection_status_2</title>
<path d="M475.43 210.29h-86.020c-11.14-42.050-49.51-73.14-95.010-73.14h-20.11v-36.57h-36.57v36.57h-20.57c-45.51 0-83.87 31.090-95.010 73.14h-85.57v36.57h82.29v4.32c0 23.73 10.8 45.84 28.84 60.49-0.92 5.69-1.41 11.53-1.41 17.47 0 60.5 49.22 109.71 109.71 109.71s109.71-49.22 109.71-109.71c0-6-0.5-11.87-1.43-17.61 17.77-14.64 28.4-36.69 28.4-60.36v-4.32h82.75v-36.56zM161.72 273.11c-4.040-6.47-6.29-14.040-6.29-21.94v-15.75c0-34.030 27.69-61.71 61.71-61.71h20.57v47.27c-32.26 5.44-59.78 24.99-75.97 52.080 0 0.020-0.010 0.030-0.020 0.050zM256 402.29c-40.33 0-73.14-32.81-73.14-73.14 0-7.18 1.060-14.12 3-20.69 0.52-1.78 1.11-3.52 1.76-5.23 0.080-0.22 0.17-0.43 0.26-0.65 1.36-3.47 2.96-6.79 4.8-9.96 0.1-0.17 0.19-0.34 0.29-0.51 0.95-1.6 1.95-3.17 3.010-4.68 0.030-0.040 0.060-0.080 0.090-0.13 12.26-17.44 31.86-29.070 53.57-30.99 0.27-0.020 0.55-0.040 0.83-0.060 1.83-0.14 3.67-0.23 5.53-0.23s3.7 0.090 5.53 0.23c0.28 0.020 0.55 0.040 0.83 0.060 19.92 1.76 38.060 11.71 50.39 26.82l-56.75 56.72-23.64-23.64-25.86 25.86 49.5 49.5 72.44-72.44c0.45 3.27 0.7 6.61 0.7 10.010 0 40.33-32.81 73.15-73.14 73.15zM274.29 220.98v-47.27h20.11c34.030 0 61.71 27.69 61.71 61.71v15.75c0 7.79-2.14 15.25-6 21.65-16.2-26.97-43.66-46.42-75.82-51.84z"></path>
</svg>
