<!-- Generated by IcoMoon.io -->
<svg version="1.1" xmlns="http://www.w3.org/2000/svg" width="512" height="512" viewBox="0 0 512 512">
<title>icon-dc_eye</title>
<path d="M470.36 247.060c-2.94-5.25-73.7-128.62-214.58-128.62-140.89 0-211.47 123.39-214.4 128.64l-4.98 8.92 4.99 8.92c2.94 5.25 73.51 128.64 214.4 128.64 140.88 0 211.64-123.37 214.58-128.62l5.010-8.94-5.020-8.94zM255.78 356.99c-98.72 0-158.75-74.8-176.74-100.99 18.010-26.23 78.040-100.99 176.74-100.99 98.69 0 158.84 74.75 176.91 100.99-18.070 26.25-78.22 100.99-176.91 100.99zM255.95 183.33c-40.070 0-72.67 32.6-72.67 72.67s32.6 72.67 72.67 72.67 72.67-32.6 72.67-72.67-32.6-72.67-72.67-72.67zM255.95 292.1c-19.9 0-36.1-16.19-36.1-36.1s16.19-36.1 36.1-36.1 36.1 16.19 36.1 36.1-16.2 36.1-36.1 36.1z"></path>
</svg>
