<!-- Generated by IcoMoon.io -->
<svg version="1.1" xmlns="http://www.w3.org/2000/svg" width="512" height="512" viewBox="0 0 512 512">
<title>icon-dc_spare_parts</title>
<path d="M309.89 353.83l35.36-9.29c1.26-8 1.94-16.19 1.94-24.54s-0.67-16.54-1.94-24.54l-35.34-9.2c-2.58-9.060-6.17-17.68-10.64-25.76l18.46-31.66c-9.63-13.32-21.3-25.040-34.57-34.71l-31.55 18.53c-8.010-4.47-16.56-8.060-25.55-10.65l-9.26-35.51c-7.96-1.27-16.12-1.95-24.45-1.95-8.32 0-16.48 0.68-24.44 1.95l-9.13 35.5c-9.020 2.59-17.61 6.19-25.65 10.68l-31.54-18.54c-13.27 9.66-24.94 21.39-34.57 34.71l18.46 31.67c-4.45 8.040-8.040 16.64-10.61 25.66l-35.36 9.29c-1.26 8-1.94 16.19-1.94 24.54s0.68 16.55 1.94 24.54l35.34 9.2c2.58 9.060 6.17 17.68 10.64 25.76l-18.46 31.66c9.63 13.32 21.3 25.040 34.57 34.71l31.55-18.53c8.010 4.47 16.56 8.060 25.55 10.65l9.26 35.51c7.96 1.27 16.12 1.95 24.44 1.95s16.48-0.68 24.45-1.95l9.16-35.48c9.020-2.59 17.61-6.19 25.65-10.68l31.54 18.54c13.27-9.66 24.94-21.39 34.57-34.71l-18.46-31.66c4.43-8.070 8.010-16.67 10.58-25.69zM192.38 401.34c-44.58 0-80.73-36.14-80.73-80.73s36.14-80.73 80.73-80.73 80.73 36.14 80.73 80.73-36.14 80.73-80.73 80.73z"></path>
<path d="M221.57 291.431c16.12 16.12 16.12 42.257 0 58.378s-42.257 16.12-58.378 0c-16.12-16.12-16.12-42.257 0-58.378s42.257-16.12 58.378 0z"></path>
<path d="M176.4 74.72c23.23 0 38.45 11.78 47.87 23.55h-23.12v21.33h56.38v-55.6h-21.33v15.47c-15.86-16.93-36.61-26.090-59.8-26.090-47.69 0-86.49 38.8-86.49 86.49h21.33c0-35.92 29.23-65.15 65.16-65.15z"></path>
<path d="M456.78 130.050c0.12-5.5-0.38-11.050-1.53-16.54l16.18-14.82c-1.56-4.58-3.49-9.1-5.82-13.52s-4.98-8.56-7.88-12.43l-21.32 5.040c-3.9-4.070-8.21-7.62-12.84-10.64l0.96-21.91c-8.83-4.35-18.3-7.27-28.040-8.66l-11.57 18.64c-0.53-0.010-1.060-0.020-1.59-0.020-4.98 0-9.98 0.51-14.94 1.55l-14.82-16.18c-4.58 1.56-9.1 3.49-13.52 5.82s-8.56 4.98-12.43 7.88l5.040 21.32c-4.070 3.9-7.62 8.21-10.63 12.83l-21.91-0.96c-4.35 8.83-7.27 18.3-8.66 28.040l18.64 11.57c-0.12 5.5 0.38 11.050 1.53 16.54l-16.18 14.82c1.56 4.58 3.49 9.1 5.82 13.52s4.98 8.56 7.88 12.43l21.32-5.040c3.9 4.070 8.21 7.62 12.84 10.64l-0.96 21.91c8.83 4.35 18.3 7.27 28.040 8.66l11.57-18.64c0.53 0.010 1.060 0.020 1.59 0.020 4.98 0 9.98-0.51 14.94-1.55l14.82 16.18c4.58-1.56 9.1-3.49 13.52-5.82s8.56-4.98 12.43-7.88l-5.040-21.32c4.070-3.9 7.62-8.21 10.63-12.83l21.91 0.96c4.35-8.83 7.27-18.3 8.66-28.040l-18.64-11.57zM400.68 161.22c-18.040 9.52-40.38 2.62-49.91-15.42-9.52-18.040-2.62-40.38 15.42-49.91 18.040-9.52 40.38-2.62 49.91 15.42 9.52 18.040 2.62 40.38-15.42 49.91z"></path>
<path d="M421.45 280.16c12.31 12.31 19.080 28.67 19.080 46.070s-6.78 33.77-19.080 46.070c-16.42 16.42-35.52 18.85-50.5 17.2l16.35-16.35-15.080-15.080-39.87 39.87 39.32 39.32 15.080-15.080-10.96-10.96c0.98 0.030 1.97 0.080 2.94 0.080 22.040 0 42.11-8.19 57.81-23.89 16.34-16.34 25.33-38.060 25.33-61.16s-9-44.82-25.33-61.16l-15.090 15.070z"></path>
</svg>
