<!-- Generated by IcoMoon.io -->
<svg version="1.1" xmlns="http://www.w3.org/2000/svg" width="512" height="512" viewBox="0 0 512 512">
<title>icon-dc_imprint</title>
<path d="M329.34 113q-26.71-41.31-72.11-41.32-27.23 0-41.76 12.7-12.47 11.18-12.47 30.1 0 21.92 15.57 33.11 13.49 10.22 50.32 20.91 49.27 14.44 71.58 28.13 42 24.9 42 69.2 0 48.8-53.17 69.95 28.79 23.89 28.79 59 0 38.58-30.35 61-26.19 19.67-66.4 19.67-67.69 0-104-56l30.35-21.9q27.5 42.8 73.66 42.81 27.76 0 41.5-12.7 12.19-11 12.2-30.61 0-20.91-14.27-31.62-12.68-9.43-51.070-22.43-49.54-17.17-71.59-30.12-41-25.14-41-67.46 0-47.29 52.14-68.2-27.76-23.65-27.76-58.5 0-39.070 30.35-62 26.19-20.16 65.88-20.16 68.47 0 101.94 54.52zM293.34 315.88q46.15-13.69 46.17-48.050 0-29.87-42.54-46.3-20.24-8.7-72.11-22.9-44.61 9.47-44.61 45.31 0 28.13 32.94 42.81 22.51 9.46 80.1 29.12z"></path>
</svg>
