<!-- Generated by IcoMoon.io -->
<svg version="1.1" xmlns="http://www.w3.org/2000/svg" width="512" height="512" viewBox="0 0 512 512">
<title>icon-dc_configuration</title>
<path d="M345.85 155.43c6.86-11.65 10.72-25.2 10.72-39.55 0-42.85-34.86-77.71-77.71-77.71s-77.71 34.86-77.71 77.71c0 14.35 3.86 27.9 10.72 39.55h-138.73v137.14h39.26c5.44-13.39 18.56-22.86 33.88-22.86 20.17 0 36.57 16.41 36.57 36.57 0 20.17-16.41 36.57-36.57 36.57-15.31 0-28.44-9.47-33.88-22.86h-39.26v155.43h365.71v-320h-93zM402.29 438.86h-292.58v-69.25c10.76 6.24 23.26 9.82 36.57 9.82 40.33 0 73.14-32.81 73.14-73.14s-32.81-73.14-73.14-73.14c-13.31 0-25.81 3.58-36.57 9.82v-50.97h155.43v-37.34c-16.34-5.73-27.43-21.090-27.43-38.78 0-22.69 18.46-41.14 41.14-41.14s41.15 18.45 41.15 41.14c0 17.69-11.090 33.050-27.43 38.78v37.34h109.71v246.86z"></path>
</svg>
