<!-- Generated by IcoMoon.io -->
<svg version="1.1" xmlns="http://www.w3.org/2000/svg" width="512" height="512" viewBox="0 0 512 512">
<title>icon-dc_podcast_2</title>
<path d="M384 219.43v32c0 68.060-55.37 123.43-123.43 123.43h-9.14c-68.060 0-123.43-55.37-123.43-123.43v-32h-36.57v32c0 83.6 64.46 152.39 146.28 159.37v28.050h-73.14v36.57h182.86v-36.57h-73.14v-28.050c81.83-6.98 146.29-75.77 146.29-159.37v-32h-36.58z"></path>
<path d="M256 338.29c50.41 0 91.43-41.020 91.43-91.43v-118.86c0-50.41-41.010-91.43-91.43-91.43s-91.43 41.020-91.43 91.43v118.86c0 50.41 41.020 91.43 91.43 91.43zM201.14 128c0-30.25 24.61-54.86 54.86-54.86s54.86 24.61 54.86 54.86v118.86c0 30.25-24.61 54.86-54.86 54.86s-54.86-24.61-54.86-54.86v-118.86z"></path>
</svg>
