<!-- Generated by IcoMoon.io -->
<svg version="1.1" xmlns="http://www.w3.org/2000/svg" width="512" height="512" viewBox="0 0 512 512">
<title>icon-dc_globe</title>
<path d="M256 36.57c-120.99 0-219.43 98.44-219.43 219.43s98.44 219.43 219.43 219.43 219.43-98.44 219.43-219.43-98.44-219.43-219.43-219.43zM73.14 256c0-12.31 1.24-24.34 3.57-35.97l4.87 7.3 32.75 25.31 19.35 7.44-22.32 11.92c0 0-1.49 1.49-1.49 4.47-1.49 1.49 13.4 38.71 13.4 38.71 1.49 2.98 2.98 4.47 4.47 5.96l29.78 23.82v59.55l1.49 5.96 0.96 1.060c-52.060-32.27-86.83-89.91-86.83-155.53zM256 438.86c-16.58 0-32.64-2.26-47.93-6.42l3.040-7.1-2.98-16.38 26.8-23.82 26.8-28.29v-1.49c2.98-17.87 5.96-49.13 5.96-52.11 0-5.96 1.49-4.47-28.29-10.42h-1.49l-32.75-37.22-50.62-10.42-14.89-4.47 7.44-17.87c11.91-7.44 83.37-43.18 110.17-67 14.89-13.4 22.33-16.38 16.38-22.33-7.44-7.44-22.33-19.35-19.35-23.82 0 0 17.87-14.89 16.38-14.89-1.49-4.47-2.98-10.42-2.98-8.93-10.86 0-62.74 0.98-82.060 1.35 21.67-9.070 45.44-14.1 70.37-14.1 44.35 0 85.060 15.89 116.76 42.25l-0.85 13.68c0 1.49-1.49 1.49-1.49 1.49l-32.75 1.49c0 0-1.49 0-1.49 1.49l-14.89 31.27c-1.49 2.98 0 7.44 1.49 8.93l22.33 19.35 2.98 1.49h41.69l19.35-17.87 13.24 3.53c4.72 10.31 8.51 21.13 11.25 32.36l-18.53 8.78-20.84-5.96-25.31-11.91c0 0-2.98-1.49-7.44 0l-41.69 16.38-1.49 1.49-14.89 19.35c-1.49 1.49-1.49 2.98-1.49 4.47l1.49 29.78c0 1.49 1.49 2.98 1.49 4.47l34.24 34.24 2.98 1.49h44.66l8.93 14.89-2.98 35.73v2.98l3.18 4.77c-33.57 39.9-83.83 65.32-139.93 65.32z"></path>
</svg>
