<!-- Generated by IcoMoon.io -->
<svg version="1.1" xmlns="http://www.w3.org/2000/svg" width="512" height="512" viewBox="0 0 512 512">
<title>icon-dc_delete</title>
<path d="M438.86 100.57h-100.57v-12.32c0-28.5-22.56-51.68-50.29-51.68h-64c-27.73 0-50.29 23.19-50.29 51.68v12.32h-100.57v109.71h36.57v213.46c0 28.5 23.19 51.68 51.68 51.68h189.21c28.5 0 51.68-23.19 51.68-51.68v-213.45h36.57v-109.72zM210.29 88.25c0-8.33 6.15-15.11 13.71-15.11h64c7.56 0 13.71 6.78 13.71 15.11v12.32h-91.43v-12.32zM365.71 423.75c0 8.33-6.78 15.11-15.11 15.11h-189.2c-8.33 0-15.11-6.78-15.11-15.11v-213.46h45.71v118.86h36.57v-118.86h54.86v118.86h36.57v-118.86h45.71v213.46zM402.29 173.71h-292.58v-36.57h292.57v36.57z"></path>
</svg>
