<!-- Generated by IcoMoon.io -->
<svg version="1.1" xmlns="http://www.w3.org/2000/svg" width="512" height="512" viewBox="0 0 512 512">
<title>icon-dc_googleplus_b</title>
<path d="M173.99 226.91v55.41c0 0 53.19 0 75.36 0-11.080 35.46-31.030 55.41-75.36 55.41-46.55 0-82.010-37.68-82.010-84.23s35.46-84.23 82.010-84.23c24.38 0 39.9 8.87 55.41 19.95 11.080-11.080 11.080-13.3 39.9-39.9-24.38-22.16-57.63-35.46-93.090-35.46-77.58 0-139.64 62.060-139.64 139.64s62.060 139.64 139.64 139.64c115.26 0 144.070-99.74 135.2-168.45-31.030 2.22-137.42 2.22-137.42 2.22zM426.67 229.13v-48.76h-35.47v48.76h-48.76v35.46h48.76v48.76h35.46v-48.76h48.76v-35.46h-48.75z"></path>
</svg>
