<!-- Generated by IcoMoon.io -->
<svg version="1.1" xmlns="http://www.w3.org/2000/svg" width="512" height="512" viewBox="0 0 512 512">
<title>icon-dc_no_preview</title>
<path d="M256 54.86c-110.91 0-201.14 90.23-201.14 201.14s90.23 201.14 201.14 201.14 201.14-90.23 201.14-201.14-90.23-201.14-201.14-201.14zM91.43 256c0-90.75 73.83-164.57 164.57-164.57 38.8 0 74.48 13.53 102.64 36.070l-231.14 231.14c-22.54-28.16-36.070-63.84-36.070-102.64zM256 420.57c-38.8 0-74.48-13.53-102.64-36.070l231.14-231.14c22.54 28.16 36.070 63.84 36.070 102.64 0 90.75-73.83 164.57-164.57 164.57z"></path>
</svg>
