<!-- Generated by IcoMoon.io -->
<svg version="1.1" xmlns="http://www.w3.org/2000/svg" width="512" height="512" viewBox="0 0 512 512">
<title>icon-dc_calculator</title>
<path d="M91.43 54.86v402.29h320v-402.29h-320zM374.86 420.57h-246.86v-329.14h246.86v329.14z"></path>
<path d="M155.43 128h192v54.86h-192v-54.86z"></path>
<path d="M228.57 210.29h45.71v45.71h-45.71v-45.71z"></path>
<path d="M301.72 210.29h45.71v45.71h-45.71v-45.71z"></path>
<path d="M155.43 210.29h45.72v45.71h-45.72v-45.71z"></path>
<path d="M301.72 274.29h45.71v109.71h-45.71v-109.71z"></path>
<path d="M155.43 274.29h45.71v45.71h-45.71v-45.71z"></path>
<path d="M228.57 274.29h45.71v45.71h-45.71v-45.71z"></path>
<path d="M155.43 338.29h45.71v45.71h-45.71v-45.71z"></path>
<path d="M228.57 338.29h45.71v45.71h-45.71v-45.71z"></path>
</svg>
