<!-- Generated by IcoMoon.io -->
<svg version="1.1" xmlns="http://www.w3.org/2000/svg" width="512" height="512" viewBox="0 0 512 512">
<title>icon-dc_linkedin_b</title>
<path d="M437.33 302.7v136.16h-79.12v-126.96c0-31.28-11.040-53.36-40.48-53.36-22.080 0-34.96 14.72-40.48 29.44-1.84 5.52-1.84 12.88-1.84 18.4v132.48h-79.12c0 0 1.84-215.28 0-237.36h79.12v33.12c11.040-16.56 29.44-38.64 71.76-38.64 51.52-1.84 90.16 33.12 90.16 106.72v0zM113.49 85.58c-27.6 0-44.16 18.4-44.16 40.48s16.56 40.48 44.16 40.48v0c27.6 0 44.16-18.4 44.16-40.48s-16.56-40.48-44.16-40.48v0zM74.85 438.86h79.12v-237.36h-79.12v237.36z"></path>
</svg>
