<!-- Generated by IcoMoon.io -->
<svg version="1.1" xmlns="http://www.w3.org/2000/svg" width="512" height="512" viewBox="0 0 512 512">
<title>icon-dc_wechat_b</title>
<path d="M475.43 302.25c0-62.41-61.8-113-138.030-113s-138.030 50.59-138.030 113c0 62.41 61.8 113 138.030 113 19 0 37.1-3.15 53.57-8.83l46.63 23.29-10.23-41.88c29.38-20.72 48.060-51.34 48.060-85.58zM296.61 285.5c-12.81 0-23.2-10.39-23.2-23.2s10.39-23.2 23.2-23.2 23.2 10.39 23.2 23.2c0 12.81-10.39 23.2-23.2 23.2zM386.090 285.5c-12.81 0-23.2-10.39-23.2-23.2s10.39-23.2 23.2-23.2c12.81 0 23.2 10.39 23.2 23.2s-10.38 23.2-23.2 23.2z"></path>
<path d="M195.61 71.76c-87.84 0-159.040 58.36-159.040 130.34 0 42.58 25.020 80.27 63.55 104.060l-11.83 44.42 56.39-25.090c12.34 3.42 25.48 5.26 38.95 6.12-2.5-9.46-3.93-19.26-3.93-29.36 0-73.9 70.6-133.81 157.69-133.81 4.010 0 7.94 0.26 11.87 0.51-17.91-55.9-79.81-97.19-153.65-97.19zM142.57 184.42c-13.26 0-24.010-10.75-24.010-24.010s10.75-24.010 24.010-24.010c13.26 0 24.010 10.75 24.010 24.010 0.010 13.25-10.74 24.010-24.010 24.010zM246.38 184.42c-13.26 0-24.010-10.75-24.010-24.010s10.75-24.010 24.010-24.010 24.010 10.75 24.010 24.010c0 13.25-10.75 24.010-24.010 24.010z"></path>
</svg>
