<!-- Generated by IcoMoon.io -->
<svg version="1.1" xmlns="http://www.w3.org/2000/svg" width="512" height="512" viewBox="0 0 512 512">
<title>icon-dc_document_selector</title>
<path d="M326.15 36.57h-234.72v438.86h201.14v-36.57h-164.57v-365.72h172.19v85.34h83.81v134.090h36.57v-159.86z"></path>
<path d="M337.64 288.32c0-23.11-9-44.85-25.35-61.19-16.34-16.34-38.070-25.35-61.19-25.35s-44.85 9-61.19 25.35c-16.34 16.34-25.35 38.080-25.35 61.19 0 23.12 9 44.85 25.35 61.19 16.87 16.87 39.030 25.3 61.19 25.3 16.37 0 32.74-4.62 46.97-13.82l91.31 90.83 25.79-25.93-91.27-90.79c8.94-13.83 13.74-29.93 13.74-46.78zM215.78 323.65c-9.44-9.44-14.63-21.98-14.63-35.33s5.2-25.89 14.63-35.33c9.44-9.44 21.98-14.63 35.33-14.63s25.89 5.2 35.33 14.63v0c9.44 9.44 14.63 21.98 14.63 35.33s-5.2 25.9-14.63 35.33c-19.49 19.48-51.18 19.48-70.66 0z"></path>
</svg>
