<!-- Generated by IcoMoon.io -->
<svg version="1.1" xmlns="http://www.w3.org/2000/svg" width="512" height="512" viewBox="0 0 512 512">
<title>icon-dc_document_dxf</title>
<path d="M381 36.57h-234.71v173.72h-109.72v182.85h109.72v82.29h329.14v-342.72zM438.85 438.86h-256v-45.72h256zM147.29 247l4.36 0.1q25.65 1.19 39.64 16.63 13.44 14.78 13.44 40.31 0 29.31-17.13 44.55-14.92 13.44-41.090 13.44h-41.88v-115.030zM250.060 247l21.38 36.69 21.29-36.69h27.5l-34.73 55 38.89 60h-30.72l-24.59-41.33-24.83 41.33h-27.66l38.82-59.25-35.91-55.75zM420.8 247v20.74h-53.59v30.41h41.33v20.11h-41.33v43.77h-25.77v-115.030zM147.61 267.46h-17.21v74.17h17.36q14.070 0 21.85-8.88 8.25-9.51 8.25-28.29 0-20.73-10.22-30.090-7.54-6.92-20-6.91zM355 73.14v85.33h83.82v51.82h-256v-137.15z"></path>
</svg>
