<!-- Generated by IcoMoon.io -->
<svg version="1.1" xmlns="http://www.w3.org/2000/svg" width="512" height="512" viewBox="0 0 512 512">
<title>icon-dc_volume_high</title>
<path d="M36.57 182.86v146.29h86.060l151.66 97.49v-341.28l-151.66 97.49h-86.060zM237.71 152.35v207.3l-104.34-67.080h-60.23v-73.14h60.23l104.34-67.080z"></path>
<path d="M405.93 95.91l-25 26.7c37.35 34.97 57.92 82.38 57.92 133.5 0 51.15-20.59 98.58-57.97 133.55l24.98 26.71c44.21-41.35 69.56-99.77 69.56-160.25 0.010-60.46-25.32-118.85-69.49-160.21z"></path>
<path d="M347.39 153.87l-24.39 27.26c21.33 19.080 33.57 46.41 33.57 74.98 0 28.59-12.25 55.94-33.62 75.020l24.36 27.28c29.12-26.010 45.83-63.3 45.83-102.3 0-38.96-16.68-76.22-45.75-102.24z"></path>
</svg>
