<!-- Generated by IcoMoon.io -->
<svg version="1.1" xmlns="http://www.w3.org/2000/svg" width="512" height="512" viewBox="0 0 512 512">
<title>icon-dc_basic_points</title>
<path d="M260.66 384.23c-28.91-2.86-53.010 21.24-50.15 50.15 2.12 21.39 19.42 38.7 40.82 40.82 28.91 2.86 53.010-21.24 50.15-50.15-2.12-21.4-19.42-38.7-40.82-40.82z"></path>
<path d="M288.375 223.622c17.815 17.815 17.762 46.754-0.12 64.636s-46.821 17.936-64.636 0.12c-17.816-17.815-17.762-46.754 0.12-64.636s46.821-17.936 64.636-0.12z"></path>
<path d="M288.379 49.912c17.815 17.815 17.762 46.754-0.12 64.636s-46.821 17.936-64.636 0.12c-17.816-17.816-17.762-46.754 0.12-64.636s46.821-17.936 64.636-0.12z"></path>
</svg>
