<!-- Generated by IcoMoon.io -->
<svg version="1.1" xmlns="http://www.w3.org/2000/svg" width="512" height="512" viewBox="0 0 512 512">
<title>icon-dc_document_mp4</title>
<path d="M381 36.57h-234.71v173.72h-109.72v182.85h109.72v82.29h329.14v-342.72zM438.85 438.86h-256v-45.72h256zM123.27 247l26.090 78.88 26.16-78.88h36.85v115h-25.3v-86.45l-29.31 86.51h-19l-29.39-86.82v86.82h-23v-115.060zM287.64 247l3.87 0.1q18.89 1 28.82 12.080 8.64 9.66 8.64 25.14 0 16.65-10.61 26.090t-29.62 9.5h-24.28v42.12h-25.77v-115.030zM416.26 245.66v74.65h14.3v19.17h-14.3v22.55h-23.49v-22.52h-55.55v-20.12l52.090-73.7zM393.87 270.73l-34.1 49.58h34.1zM286.15 267.43h-21.69v33.31h21.54q8.73 0 13.32-4.36t4.6-12.61q0-16.35-17.76-16.34zM355 73.14v85.33h83.82v51.82h-256v-137.15z"></path>
</svg>
