<!-- Generated by IcoMoon.io -->
<svg version="1.1" xmlns="http://www.w3.org/2000/svg" width="512" height="512" viewBox="0 0 512 512">
<title>icon-dc_online</title>
<path d="M475.43 63.35l-26.78-26.78-84 84c-21.060-15.693-47.59-25.124-76.323-25.124-35.442 0-67.532 14.35-90.779 37.556l0.002-0.002-18.84 18.91-12.34-12.34-26.78 26.78 12.34 12.34-18.93 18.88c-45.48 45.48-49.6 116.87-12.4 167.060l-84 84 26.78 26.78 84-84c21.060 15.691 47.59 25.122 76.322 25.122 35.432 0 67.514-14.341 90.76-37.534l-0.002 0.002 18.83-18.91 12.34 12.34 26.78-26.78-12.34-12.34 18.93-18.88c45.47-45.47 49.6-116.87 12.39-167.060zM287.65 352.23c-16.365 16.373-38.977 26.5-63.955 26.5-49.94 0-90.425-40.485-90.425-90.425 0-24.962 10.115-47.563 26.47-63.925l-0 0 19-18.89 127.8 127.8zM352.26 287.62l-19 18.89-127.77-127.8 18.86-18.94c16.365-16.373 38.978-26.5 63.955-26.5 49.94 0 90.425 40.484 90.425 90.425 0 24.963-10.115 47.563-26.47 63.925l0-0z"></path>
</svg>
