<!-- Generated by IcoMoon.io -->
<svg version="1.1" xmlns="http://www.w3.org/2000/svg" width="512" height="512" viewBox="0 0 512 512">
<title>icon-dc_document_xml</title>
<path d="M381 36.57h-234.71v173.72h-109.72v182.85h109.72v82.29h329.14v-342.72zM182.86 73.14h172.19v85.34h83.81v51.81h-256zM427.9 340v20.64h-76v-114.41h25.6v93.77zM269.66 360.64h-18.88l-29.29-86.25v86.25h-22.88v-114.41h36.81l25.92 78.4 25.92-78.4h36.65v114.41h-25.13v-86.090zM125.5 319.51l-24.65 41.13h-27.52l38.57-58.89-35.69-55.52h30.41l21.28 36.48 21.1-36.48h27.36l-34.54 54.77 38.72 59.69h-30.54l-3.69-6.21zM182.86 438.86v-45.72h256v45.72z"></path>
</svg>
