<!-- Generated by IcoMoon.io -->
<svg version="1.1" xmlns="http://www.w3.org/2000/svg" width="512" height="512" viewBox="0 0 512 512">
<title>icon-dc_notification-02</title>
<path d="M164.57 167.12c0-45.2 34.96-93.98 91.43-93.98 26.35 0 48.010 10.62 63.62 26.54l25.83-25.83c-23.090-23.030-54.66-37.28-89.45-37.28-70.58 0-128 58.56-128 130.55v124.19l36.57-36.57v-87.62z"></path>
<path d="M384 220.69l-36.57 36.57v40.37l35.33 58.94h-134.65l-36.57 36.57h98.34c-4.78 26.35-26.73 45.71-53.88 45.71-24.49 0-44.74-15.76-51.99-38.18l-27.78 27.78c15.53 28.26 45.1 46.98 79.76 46.98 47.66 0 85.7-35.36 90.82-82.29h100.5l-63.31-105.63v-66.82z"></path>
<path d="M347.43 195.47l109.71-109.72-30.89-30.89-371.39 371.39 30.89 30.89 100.57-100.57z"></path>
</svg>
