<!-- Generated by IcoMoon.io -->
<svg version="1.1" xmlns="http://www.w3.org/2000/svg" width="512" height="512" viewBox="0 0 512 512">
<title>icon-dc_callout_information</title>
<path d="M256 36.57v0c-121.19 0-219.43 98.24-219.43 219.43v0c0 121.19 98.24 219.43 219.43 219.43v0c121.19 0 219.43-98.24 219.43-219.43v0c0-121.19-98.24-219.43-219.43-219.43zM247.050 110.1c20.060 0 36.38 16.32 36.38 36.38s-16.32 36.38-36.38 36.38c-20.060 0-36.38-16.32-36.38-36.38s16.32-36.38 36.38-36.38zM329.14 393.14h-146.28v-54.86h45.71v-73.14h-28.19v-54.86h83.050v128h45.71v54.86z"></path>
</svg>
