<!-- Generated by IcoMoon.io -->
<svg version="1.1" xmlns="http://www.w3.org/2000/svg" width="512" height="512" viewBox="0 0 512 512">
<title>icon-dc_music</title>
<path d="M201.14 104.26v220.41c-13.32-8.93-29.080-13.81-45.71-13.81-45.37 0-82.29 36.91-82.29 82.29s36.91 82.29 82.29 82.29 82.29-36.91 82.29-82.29v-159.13l164.57-37.4v100.71c-13.080-8.78-28.81-13.9-45.71-13.9-45.37 0-82.29 36.91-82.29 82.29s36.91 82.28 82.28 82.28 82.29-36.91 82.29-82.29v-315.48l-237.72 54.030zM155.43 438.86c-25.21 0-45.71-20.51-45.71-45.71s20.51-45.71 45.71-45.71c14.52 0 27.85 6.67 36.58 18.3 5.97 7.95 9.13 17.43 9.13 27.42 0 25.19-20.5 45.7-45.71 45.7zM237.71 196.52v-63.070l164.57-37.4v63.070l-164.57 37.4zM356.57 411.43c-25.21 0-45.71-20.51-45.71-45.71 0-25.21 20.51-45.71 45.71-45.71 25.21 0 45.71 20.51 45.71 45.71 0.010 25.2-20.5 45.71-45.71 45.71z"></path>
</svg>
