<!-- Generated by IcoMoon.io -->
<svg version="1.1" xmlns="http://www.w3.org/2000/svg" width="512" height="512" viewBox="0 0 512 512">
<title>icon-dc_packet_solution</title>
<path d="M433.34 148.71l-177.34-48.14-177.34 48.14-40.72 82.12 35.2 10.35v118.29l182.86 78.72 182.86-78.73v-118.28l35.2-10.35-40.72-82.12zM90.060 208.030l11.020-22.22 126 35.38-15.31 22.63-121.71-35.79zM237.71 390.5l-128-55.11v-83.46l117.37 34.52 10.63-15.71v119.76zM256 191.33l-96.93-27.22 96.93-27.22 96.93 27.22-96.93 27.22zM402.29 335.39l-128 55.11v-119.75l10.63 15.71 117.37-34.52v83.45zM300.23 243.83l-15.31-22.63 126-35.38 11.020 22.22-121.71 35.79z"></path>
</svg>
