<!-- Generated by IcoMoon.io -->
<svg version="1.1" xmlns="http://www.w3.org/2000/svg" width="512" height="512" viewBox="0 0 512 512">
<title>icon-dc_document_dwg</title>
<path d="M381 36.57h-234.71v173.72h-109.72v182.85h109.72v82.29h329.14v-342.72zM438.85 438.86h-256v-45.72h256zM402.41 245.22q21.54 0 34.89 12.18 7.23 6.53 12.49 18.39v0l-23.57 9.35-1.29-3.14c-1.459-3.586-3.409-6.668-5.806-9.339l0.026 0.029q-6.36-6.69-17.21-6.69-15.24 0-22.63 12.81-5.81 10.14-5.81 26.17 0 15.56 5.66 25.22 7.62 13 23.8 13 12 0 19.41-7.15c4.178-4.070 6.771-9.752 6.771-16.038 0-0.243-0.004-0.486-0.012-0.728l0.001 0.036v-0.95h-24.28v-19.25h49.42v62.94h-14.27l-4.56-16.9-2.53 3.4c-3.077 3.939-6.769 7.229-10.961 9.779l-0.179 0.101q-9.27 5.43-21.92 5.42-22.23 0-36.69-14.37-16.5-16.35-16.5-44.32 0-27.66 16.81-44.47 15.45-15.48 38.94-15.48zM107.060 247l4.36 0.1q25.65 1.19 39.64 16.63 13.44 14.78 13.44 40.31 0 29.31-17.13 44.55-14.93 13.44-41.090 13.44h-41.88v-115.030zM204.060 247l18.94 81 22.35-81h21.45l22.55 81.56 19.88-81.56h24.83l-29.78 115h-26.56l-21.84-77.71-22.39 77.71h-26.88l-29.61-115zM107.42 267.43h-17.25v74.17h17.37q14.050 0 21.84-8.88 8.25-9.51 8.25-28.29 0-20.73-10.22-30.090-7.53-6.92-20-6.91zM355 73.14v85.33h83.82v51.82h-256v-137.15z"></path>
</svg>
