<!-- Generated by IcoMoon.io -->
<svg version="1.1" xmlns="http://www.w3.org/2000/svg" width="512" height="512" viewBox="0 0 512 512">
<title>icon-dc_save_as</title>
<path d="M366.050 364.94h-291.88v-291.88h54.72v100.33h182.43v-100.33h19.81l34.92 34.94v29.63h36.48v-44.77l-56.29-56.29h-308.56v364.85h364.85v-87.9h-36.48zM165.38 73.060h109.45v63.84h-109.45zM465.3 140.25c-6.569-6.517-15.617-10.544-25.605-10.544s-19.036 4.028-25.608 10.547l0.002-0.002-114.22 112.36-6.39 57.47 57.52-5.66 113.26-114.13c6.815-6.591 11.075-15.79 11.17-25.983v-0.018c-0.023-9.416-3.895-17.923-10.125-24.035l-0.005-0.005zM342.68 286.91l-28.58 2.81 3.18-28.65 86.050-84.6 24.57 24.53zM451.36 177.4l-10.61 10.69-24.41-24.41 11.66-11.47c3.127-2.649 7.207-4.259 11.663-4.259 4.977 0 9.485 2.009 12.757 5.26l-0.001-0.001c2.926 2.814 4.748 6.758 4.76 11.127v0.002c-0.127 5.153-2.335 9.767-5.811 13.052l-0.009 0.008z"></path>
</svg>
