<!-- Generated by IcoMoon.io -->
<svg version="1.1" xmlns="http://www.w3.org/2000/svg" width="512" height="512" viewBox="0 0 512 512">
<title>icon-dc_material_number</title>
<path d="M36.17 438.71h256v36.57h-256v-36.57z"></path>
<path d="M473.21 101.72c-4.952-14.067-15.005-25.281-27.885-31.636l-0.325-0.144c-26.68-13-58.77-3.33-71.52 21.64l-123.25 241.29 24.55 69 72.5-20.78 123.23-241.36c3.358-6.455 5.329-14.095 5.329-22.195 0-5.662-0.962-11.1-2.733-16.157l0.104 0.343zM321.94 350.29l-24.22 6.94-7.72-21.77 86.57-169.54 31 16.7zM437.94 123.1l-13.75 26.9-31-16.7 12.81-25.090c3.67-7.2 14.16-9.67 22.89-5.41 4.464 2.112 7.884 5.821 9.568 10.371l0.041 0.129c0.469 1.263 0.74 2.721 0.74 4.243 0 2.025-0.48 3.937-1.333 5.63l0.033-0.072z"></path>
<path d="M84.17 388.31h-14.8v-66.17h-14.11q-1.8 7.89-7.67 11.4-3.65 2.1-11 3.080v12.47q10.31 0 16-2.32v41.54h-16.42v13.83h48z"></path>
<path d="M155.41 388.47h-33.22q12.7-7.77 18.8-13.61 13.56-12.86 13.56-27.86 0-11.94-7.77-18.53-7.18-6.12-19-6.11-13.12 0-20.78 7.93-4.62 4.71-7.090 13.71l15.37 3.69q1.77-6.27 4.53-9.080c1.747-1.741 4.157-2.817 6.819-2.817 0.134 0 0.267 0.002 0.4 0.008l-0.019-0c0.159-0.010 0.346-0.015 0.533-0.015 2.649 0 5.038 1.115 6.722 2.901l0.004 0.005q2.59 2.9 2.6 8 0 12.69-14.63 25.71-7.44 6.65-22.44 16.18v13.42h55.61z"></path>
<path d="M212.91 386.73c-2.274 1.488-5.060 2.373-8.053 2.373-0.22 0-0.44-0.005-0.658-0.014l0.031 0.001c-0.185 0.008-0.403 0.012-0.621 0.012-3.236 0-6.246-0.967-8.757-2.629l0.059 0.037q-4.080-2.88-6.060-9.64l-15.16 3.8q2.090 9.33 8.2 14.58 8.63 7.33 23.14 7.34 13.29 0 21.21-6.11 8.41-6.37 8.42-17.63 0-13.87-14.47-18.75 12.54-5.19 12.54-16.6c0.004-0.146 0.006-0.317 0.006-0.49 0-5.933-2.654-11.247-6.839-14.817l-0.027-0.022q-7.4-6.48-20-6.48-22.29 0-29 20.52l14.080 4q4.39-11 14.25-11c0.163-0.009 0.355-0.014 0.548-0.014 2.696 0 5.156 1.010 7.023 2.673l-0.011-0.009c1.725 1.716 2.793 4.091 2.793 6.716 0 0.174-0.005 0.347-0.014 0.519l0.001-0.024q0 5.56-4.28 8.2c-2.012 1.151-4.422 1.829-6.99 1.829-0.179 0-0.358-0.003-0.536-0.010l0.025 0.001h-6.64v12.37h7.17q6 0 9.33 2.76c2.080 1.771 3.391 4.39 3.391 7.317 0 0.163-0.004 0.325-0.012 0.486l0.001-0.022q0 5.84-4.090 8.73z"></path>
</svg>
