<!-- Generated by IcoMoon.io -->
<svg version="1.1" xmlns="http://www.w3.org/2000/svg" width="512" height="512" viewBox="0 0 512 512">
<title>icon-dc_instagram_b</title>
<path d="M256 105.1c47.93 0 53.26 0 72.79 1.78 17.75 0 26.63 3.55 33.73 5.33 8.88 3.55 14.2 7.1 21.3 14.2s10.65 12.43 14.2 21.3c1.78 7.1 5.33 15.98 5.33 33.73 0 19.53 1.78 24.85 1.78 72.79s0 53.26-1.78 72.79c0 17.75-3.55 26.63-5.33 33.73-3.55 8.88-7.1 14.2-14.2 21.3s-12.43 10.65-21.3 14.2c-7.1 1.78-15.98 5.33-33.73 5.33-19.53 0-24.85 1.78-72.79 1.78s-53.26 0-72.79-1.78c-17.75 0-26.63-3.55-33.73-5.33-8.88-3.55-14.2-7.1-21.3-14.2s-10.65-12.43-14.2-21.3c-1.78-7.1-5.33-15.98-5.33-33.73 0-19.53-1.78-24.85-1.78-72.79s0-53.26 1.78-72.79c0-17.75 3.55-26.63 5.33-33.73 3.55-8.88 7.1-14.2 14.2-21.3s12.43-10.65 21.3-14.2c7.1-1.78 15.98-5.33 33.73-5.33 19.53-1.78 24.86-1.78 72.79-1.78zM256 73.14c-47.93 0-55.030 0-74.56 1.78-19.53 0-31.96 3.55-44.38 8.88-12.43 5.33-21.3 10.65-31.96 21.3-10.65 10.65-15.98 19.53-21.3 31.96-5.33 10.65-7.1 24.85-8.88 44.38 0 19.53-1.78 24.85-1.78 74.56 0 47.93 0 55.030 1.78 74.56 0 19.53 3.55 31.96 8.88 44.38 5.33 12.43 10.65 21.3 21.3 31.96 10.65 10.65 19.53 15.98 31.96 21.3 10.65 5.33 24.85 7.1 44.38 8.88 19.53 0 24.85 1.78 74.56 1.78s55.030 0 74.56-1.78c19.53 0 31.96-3.55 44.38-8.88 12.43-5.33 21.3-10.65 31.96-21.3s15.98-19.53 21.3-31.96c5.33-10.65 7.1-24.85 8.88-44.38 0-19.53 1.78-24.85 1.78-74.56s0-55.030-1.78-74.56c0-19.53-3.55-31.96-8.88-44.38-5.33-12.43-10.65-21.3-21.3-31.96-10.65-10.65-19.53-15.98-31.96-21.3-10.65-5.33-24.85-7.1-44.38-8.88s-26.63-1.78-74.56-1.78v0z"></path>
<path d="M256 160.13c-51.48 0-92.32 40.83-92.32 92.32s40.83 92.32 92.32 92.32 92.32-40.83 92.32-92.32-40.84-92.32-92.32-92.32zM256 312.81c-33.73 0-60.36-26.63-60.36-60.36s26.63-60.36 60.36-60.36 60.36 26.63 60.36 60.36c0 31.96-26.63 60.36-60.36 60.36z"></path>
<path d="M373.17 156.58c0 11.763-9.536 21.3-21.3 21.3s-21.3-9.536-21.3-21.3c0-11.763 9.536-21.3 21.3-21.3s21.3 9.536 21.3 21.3z"></path>
</svg>
