<!-- Generated by IcoMoon.io -->
<svg version="1.1" xmlns="http://www.w3.org/2000/svg" width="512" height="512" viewBox="0 0 512 512">
<title>dc_icon_weibo</title>
<path d="M368.83 256.59c-6.036-3.782-12.988-7.032-20.339-9.397l-0.661-0.184c-1.6-0.46-2.74-0.91-3.42-1.14-0.986-0.349-1.827-0.897-2.509-1.599l-0.002-0.001c-0.637-0.343-1.063-1.005-1.063-1.767 0-0.268 0.053-0.523 0.148-0.756l-0.005 0.013c0.49-1.208 0.818-2.607 0.918-4.068l0.002-0.042q9.24-23.61 0-36.27c-6.16-8.22-16.66-12.55-31.26-12.55s-31.26 4.11-50.19 12.090l-1.15 0.46-2.73 0.68c-0.45 0.112-0.968 0.177-1.5 0.177s-1.049-0.065-1.544-0.185l0.044 0.009c-0.857-0.183-1.575-0.678-2.043-1.359l-0.007-0.011c-0.46-0.91-0.46-2.050 0.23-4.1 6.16-19.62 4.79-34-4.11-42.67-10-10-26.92-10.49-50.19-1.37-23.5 9.13-46.78 25.1-69.59 48.14-17.76 17.31-31.22 34.91-40.57 52.48-9.36 17.79-14.15 34.45-14.15 50-0.001 0.087-0.001 0.19-0.001 0.293 0 15.173 4.969 29.186 13.37 40.499l-0.129-0.183c9.191 12.733 20.859 23.092 34.364 30.529l0.536 0.271c14.108 7.827 30.447 14.322 47.649 18.64l1.411 0.3c17.001 4.353 36.518 6.851 56.618 6.851 19.411 0 38.278-2.329 56.336-6.724l-1.624 0.334c17.57-4.11 33.090-9.81 46.090-16.89 13.106-6.963 24.412-14.919 34.606-24.087l-0.156 0.137c8.893-7.925 16.349-17.224 22.088-27.603l0.272-0.536c5-9.81 7.53-19.17 7.53-28.52 0.002-0.132 0.002-0.286 0.002-0.442 0-8.652-2.555-16.709-6.954-23.454l0.101 0.166c-4.401-6.478-9.868-11.875-16.204-16.065l-0.216-0.135zM302.21 350.13c-19.85 16.2-45.18 25.78-75.29 29-19.85 1.82-38.56 0.45-55.9-4.34-17.57-4.79-31.71-12.090-42.44-22.36-11-10-16.88-21.67-18.25-34.67-2.28-19.85 6.85-37.88 26.7-54.080s45.17-25.78 75.29-29c19.84-1.83 38.55-0.46 55.89 4.33 17.57 4.79 31.72 12.090 42.67 22.36 10.95 10 16.88 21.68 18.25 34.68 2.050 19.85-7.070 37.87-26.92 54.070z"></path>
<path d="M232.62 265.49c-14.37-3.65-28.75-2.28-42.89 3.88s-24.41 15.74-30.8 28.29q-9.59 19.5-1.37 38.33c5.47 12.55 15.51 21.22 30.11 25.78 15.060 4.79 30.35 4.11 45.64-2.51s26-16.66 32.16-30.57c6.16-13.69 5.94-26.47-0.45-38.79s-17.34-20.53-32.4-24.41zM211 331.65c-3.010 4.52-7.425 7.898-12.613 9.534l-0.167 0.046c-2.106 0.789-4.538 1.247-7.078 1.247-2.969 0-5.792-0.625-8.345-1.749l0.133 0.052c-4.56-2.28-7.53-5.71-8.67-10.27-1.14-4.79-0.22-9.35 2.74-13.92 2.857-4.43 7.126-7.736 12.162-9.308l0.158-0.043c2.115-0.799 4.561-1.262 7.115-1.262 2.78 0 5.431 0.548 7.852 1.541l-0.138-0.050c4.487 1.797 7.859 5.544 9.106 10.164l0.024 0.106c0.327 1.284 0.515 2.758 0.515 4.276 0 3.575-1.042 6.906-2.839 9.706l0.043-0.072zM230.11 307c-1.011 1.789-2.596 3.154-4.501 3.861l-0.059 0.019c-0.882 0.328-1.901 0.517-2.965 0.517s-2.083-0.19-3.025-0.537l0.060 0.019c-4.11-1.82-5-5-2.74-9.13 0.986-1.728 2.477-3.072 4.272-3.848l0.059-0.022c0.884-0.328 1.905-0.517 2.97-0.517s2.086 0.19 3.031 0.537l-0.061-0.019c1.737 0.686 3.064 2.085 3.637 3.827l0.012 0.043c0.133 0.522 0.209 1.12 0.209 1.737 0 1.288-0.333 2.499-0.918 3.55l0.019-0.037z"></path>
<path d="M364.72 217.35c2.074 3.768 6.017 6.279 10.548 6.279 5.234 0 9.685-3.351 11.326-8.025l0.026-0.084c1.474-4.355 2.325-9.37 2.325-14.585 0-3.333-0.348-6.584-1.009-9.721l0.054 0.306c-3.608-16.779-15.651-30.085-31.373-35.421l-0.337-0.099c-4.241-1.425-9.126-2.248-14.202-2.248-3.54 0-6.986 0.4-10.296 1.157l0.309-0.060c-3.183 0.701-5.83 2.606-7.491 5.202l-0.029 0.048c-1.204 1.805-1.921 4.025-1.921 6.412 0 0.964 0.117 1.902 0.338 2.798l-0.017-0.080c0.51 3.2 2.364 5.886 4.954 7.504l0.046 0.026c1.816 1.19 4.041 1.899 6.432 1.899 0.954 0 1.88-0.113 2.769-0.326l-0.080 0.017c8.67-1.82 15.75 0.69 21.91 7.080q8.89 9.92 4.79 22.58c-0.353 1.079-0.557 2.322-0.557 3.612 0 2.107 0.543 4.089 1.498 5.81l-0.031-0.061z"></path>
<path d="M436.82 181.76c-3.58-17.709-11.707-33.125-23.108-45.474l0.058 0.064c-11.119-12.592-25.478-22.078-41.775-27.174l-0.655-0.177c-8.721-2.852-18.757-4.496-29.178-4.496-7.284 0-14.382 0.803-21.207 2.327l0.646-0.121c-3.744 0.724-6.882 2.892-8.868 5.889l-0.031 0.050c-1.393 2.040-2.224 4.559-2.224 7.272 0 1.143 0.147 2.252 0.425 3.308l-0.020-0.091c0.713 3.779 2.964 6.928 6.063 8.828l0.058 0.032c2.18 1.425 4.849 2.273 7.716 2.273 0.982 0 1.94-0.1 2.866-0.289l-0.091 0.016c4.28-0.945 9.197-1.485 14.239-1.485 7.551 0 14.818 1.213 21.618 3.454l-0.488-0.139c12.024 3.811 22.21 10.549 30.082 19.393l0.058 0.067c8.014 8.728 13.792 19.633 16.351 31.726l0.079 0.444c0.95 4.175 1.495 8.97 1.495 13.892 0 7.609-1.302 14.915-3.696 21.706l0.14-0.457c-0.386 1.226-0.608 2.637-0.608 4.099 0 7.792 6.317 14.11 14.11 14.11 6.256 0 11.561-4.072 13.41-9.709l0.029-0.1c2.894-8.791 4.565-18.908 4.565-29.416 0-7.034-0.748-13.893-2.169-20.502l0.115 0.638z"></path>
</svg>
