<!-- Generated by IcoMoon.io -->
<svg version="1.1" xmlns="http://www.w3.org/2000/svg" width="512" height="512" viewBox="0 0 512 512">
<title>icon-dc_clock</title>
<path d="M256 36.572c-121.187 0-219.429 98.241-219.429 219.428s98.242 219.428 219.429 219.428c121.187 0 219.428-98.241 219.428-219.429v0c0-121.187-98.241-219.429-219.429-219.429v0zM256 438.857c-100.989 0-182.857-81.868-182.857-182.857s81.868-182.857 182.857-182.857c100.989 0 182.857 81.868 182.857 182.857v0c-0.117 100.942-81.915 182.74-182.846 182.857h-0.012z"></path>
<path d="M274.286 109.715h-36.572v164.572h128v-36.572h-91.428v-128z"></path>
</svg>
