<!-- Generated by IcoMoon.io -->
<svg version="1.1" xmlns="http://www.w3.org/2000/svg" width="512" height="512" viewBox="0 0 512 512">
<title>icon-dc_options</title>
<path d="M420.57 256c0 20.197-16.373 36.57-36.57 36.57s-36.57-16.373-36.57-36.57c0-20.197 16.373-36.57 36.57-36.57s36.57 16.373 36.57 36.57z"></path>
<path d="M292.57 256c0 20.197-16.373 36.57-36.57 36.57s-36.57-16.373-36.57-36.57c0-20.197 16.373-36.57 36.57-36.57s36.57 16.373 36.57 36.57z"></path>
<path d="M164.57 256c0 20.197-16.373 36.57-36.57 36.57s-36.57-16.373-36.57-36.57c0-20.197 16.373-36.57 36.57-36.57s36.57 16.373 36.57 36.57z"></path>
</svg>
