<!-- Generated by IcoMoon.io -->
<svg version="1.1" xmlns="http://www.w3.org/2000/svg" width="512" height="512" viewBox="0 0 512 512">
<title>icon-dc_settings</title>
<path d="M256 182.86c-40.4 0-73.14 32.75-73.14 73.14s32.75 73.14 73.14 73.14 73.14-32.75 73.14-73.14-32.74-73.14-73.14-73.14zM256 292.57c-20.17 0-36.57-16.41-36.57-36.57s16.41-36.57 36.57-36.57 36.57 16.41 36.57 36.57-16.4 36.57-36.57 36.57z"></path>
<path d="M423.66 264.030c0.14-2.73 0.2-5.46 0.2-8.19 0-2.35-0.12-5.010-0.3-7.72l48.9-48.87-8.67-22.25c-4.25-10.91-9.39-21.52-15.26-31.54-5.87-10.010-12.63-19.68-20.1-28.74l-14.73-17.9-67.56 17.080c-4.54-2.83-9.22-5.44-14.040-7.84l-18.28-65.13-23.22-3.63c-11.65-1.82-23.48-2.74-35.16-2.74s-23.51 0.92-35.16 2.74l-23.14 3.61-18.75 66.020c-4.66 2.41-9.2 5.030-13.61 7.86-17.9-4.57-43.55-11.13-43.92-11.22l-22.52-5.76-14.77 17.94c-7.46 9.070-14.23 18.74-20.1 28.75-5.88 10.020-11.010 20.62-15.26 31.53l-8.65 22.19 48.96 49.21c-0.12 2.24-0.2 4.43-0.2 6.39 0 2.74 0.070 5.49 0.21 8.23l-48.24 48.74 8.62 22.13c4.25 10.91 9.39 21.52 15.26 31.53s12.63 19.68 20.1 28.75l14.82 18.010 67.19-17.4c4.16 2.61 8.44 5.040 12.81 7.27l18.51 65.97 23.22 3.63c11.65 1.82 23.48 2.74 35.16 2.74s23.51-0.92 35.16-2.74l23.14-3.61 6.4-22.53 12.57-44.29c3.81-1.99 7.96-4.25 12.050-6.64l68.22 17.57 14.8-17.98c7.46-9.070 14.23-18.74 20.1-28.75 5.88-10.020 11.010-20.62 15.26-31.53l8.68-22.28-48.7-48.61zM416.89 347.95c-5.020 8.56-10.66 16.56-16.79 24.010l-61.26-15.77c-10.8 8.62-36.34 20.5-36.34 20.5l-16.99 59.87c-9.62 1.5-19.47 2.3-29.52 2.3s-19.9-0.8-29.52-2.3l-16.81-59.91c-13.2-4.92-25.39-11.87-36.17-20.47l-61 15.8c-6.13-7.45-11.76-15.44-16.79-24.010-5.020-8.56-9.24-17.36-12.73-26.31l43.74-44.19c-1.2-7.030-1.83-14.25-1.83-21.62 0-6.92 1.59-20.090 1.59-20.090l-44.19-44.42c3.49-8.95 7.71-17.75 12.73-26.31s10.66-16.56 16.79-24.010c0 0 54.38 13.9 60.5 15.45 10.81-8.84 23.090-16 36.43-21.080l0.2-0.080 16.99-59.87c9.62-1.5 19.47-2.3 29.52-2.3s19.9 0.8 29.52 2.3c0 0 14.91 53.14 16.64 59.29 13.57 4.91 26.23 11.93 37.26 20.73l61.34-15.51c6.13 7.45 11.76 15.44 16.79 24.010 5.020 8.56 9.24 17.36 12.73 26.31l-44.29 44.25c0 0 1.86 13.99 1.86 21.31 0 7.4-0.63 14.66-1.85 21.72l44.18 44.070c-3.49 8.97-7.71 17.77-12.73 26.33z"></path>
</svg>
