<!-- Generated by IcoMoon.io -->
<svg version="1.1" xmlns="http://www.w3.org/2000/svg" width="512" height="512" viewBox="0 0 512 512">
<title>icon-dc_cad</title>
<path d="M381 36.57h-234.71v173.71h-109.72v182.86h109.71v82.29h329.14v-342.72l-94.42-96.14zM168.15 353.11c-8.5 6.37-18.93 9.56-31.31 9.56-15.9 0-28.72-4.84-38.46-14.53-10.72-10.67-16.080-25.25-16.080-43.75 0-18.13 5.47-32.77 16.4-43.9 9.95-10.1 22.53-15.15 37.76-15.15 14.19 0 25.62 4.040 34.27 12.12 4.82 4.51 9.14 11.090 12.98 19.74l-22.61 9.25c-2.28-6.11-4.82-10.65-7.61-13.6-4.3-4.66-10.020-6.99-17.17-6.99-9.89 0-17.17 4.090-21.83 12.28-3.73 6.58-5.59 15.18-5.59 25.8s1.86 19.19 5.59 25.72c4.71 8.34 12.17 12.51 22.38 12.51 6.32 0 11.47-1.71 15.46-5.13s7.28-8.94 9.87-16.55l22.77 9.25c-2.28 5.65-4.69 10.23-7.23 13.75-2.57 3.51-5.76 6.72-9.59 9.62zM438.86 438.86h-256v-45.71h256v45.71zM194.34 360.88l41.65-113.76h29.22l41.030 113.76h-27.12l-7.3-21.68h-46.16l-7.38 21.68h-23.94zM324.62 360.88v-113.76h42.19c19.010 0 33.52 5.52 43.51 16.55 8.86 9.74 13.29 23.030 13.29 39.86 0 19.32-5.65 34.010-16.94 44.060-9.84 8.86-23.39 13.29-40.64 13.29h-41.41zM438.86 210.29h-256v-137.15h172.19v85.33h83.81v51.82z"></path>
<path d="M248.89 271.21l-17.1 49.88h34.040z"></path>
<path d="M367.13 267.32h-17.020v73.35h17.17c9.27 0 16.47-2.93 21.6-8.78 5.44-6.27 8.16-15.59 8.16-27.97 0-13.68-3.37-23.6-10.1-29.76-4.97-4.56-11.58-6.84-19.81-6.84z"></path>
</svg>
