<!-- Generated by IcoMoon.io -->
<svg version="1.1" xmlns="http://www.w3.org/2000/svg" width="512" height="512" viewBox="0 0 512 512">
<title>icon-dc_add_wishlist</title>
<path d="M475.43 393.3h-45.38v-45.63h-36.5v45.63h-46.52v36.51h46.52v45.37h36.5v-45.37h45.38v-36.51z"></path>
<path d="M256.56 114.1l35.35 66.29 17.090 3.25 49.66 9.52-51.99 50.26 2.81 18.58 7.76 51.9-60.68-28.34-60.69 28.34 7.76-51.9 2.78-18.58-52-50.26 66.79-12.8 8.21-15.36 27.15-50.87zM256.56 36.6l-59.36 111.19-118.7 22.75 89 86.060-17.78 119.13 106.84-49.88 106.83 49.88-17.8-119.13 89-86.060-118.68-22.75-59.35-111.22z"></path>
</svg>
