<!-- Generated by IcoMoon.io -->
<svg version="1.1" xmlns="http://www.w3.org/2000/svg" width="512" height="512" viewBox="0 0 512 512">
<title>icon-dc_locator</title>
<path d="M310.86 192c0 30.298-24.562 54.86-54.86 54.86s-54.86-24.561-54.86-54.86c0-30.298 24.561-54.86 54.86-54.86s54.86 24.561 54.86 54.86z"></path>
<path d="M256 36.57c-85.53 0-155.12 69.58-155.12 155.12 0 47.92 20.91 86.53 29.79 100.73 22.74 37.33 107.010 152.36 110.58 157.24l14.75 20.13 14.75-20.12c3.57-4.88 87.71-119.73 110.53-157.15 9.020-14.45 29.84-53.020 29.84-100.82 0-85.54-69.59-155.13-155.12-155.13zM350.21 273.22l-0.11 0.18c-16.35 26.84-68.34 98.96-94.1 134.42-25.76-35.46-77.77-107.62-94.21-134.6-15.24-24.38-24.34-54.85-24.34-81.53 0-65.37 53.18-118.55 118.55-118.55s118.55 53.18 118.55 118.55c0 26.67-9.1 57.14-24.34 81.53z"></path>
</svg>
