<!-- Generated by IcoMoon.io -->
<svg version="1.1" xmlns="http://www.w3.org/2000/svg" width="512" height="512" viewBox="0 0 512 512">
<title>icon-dc_connection_status</title>
<path d="M475.43 237.71h-85.13c-7.67-46.61-48.22-82.29-96.96-82.29h-19.050v-36.57h-36.57v36.57h-19.050c-48.75 0-89.3 35.68-96.96 82.29h-85.14v36.57h85.13c7.67 46.61 48.22 82.29 96.96 82.29h19.050v36.57h36.57v-36.57h19.050c48.75 0 89.3-35.68 96.96-82.29h85.13v-36.57zM218.67 320c-34.030 0-61.71-27.69-61.71-61.71v-4.57c0-34.030 27.69-61.71 61.71-61.71h19.050v128h-19.050zM355.050 258.29c0 34.030-27.69 61.71-61.71 61.71h-19.050v-128h19.050c34.030 0 61.71 27.69 61.71 61.71v4.58z"></path>
</svg>
