<!-- Generated by IcoMoon.io -->
<svg version="1.1" xmlns="http://www.w3.org/2000/svg" width="512" height="512" viewBox="0 0 512 512">
<title>icon-dc_document_png</title>
<path d="M381 37.45h-234.71v173.72h-109.72v182.83h109.72v82.29h329.14v-342.7zM438.85 439.74h-256v-45.74h256zM368.65 246.1q21.53 0 34.89 12.18 7.21 6.53 12.49 18.39v0l-23.57 9.33-1.29-3.19c-1.463-3.584-3.412-6.666-5.807-9.341l0.026 0.031q-6.37-6.67-17.21-6.68-15.24 0-22.63 12.81-5.82 10.14-5.81 26.17 0 15.56 5.65 25.22 7.62 13 23.81 13 12 0 19.41-7.15c4.173-4.074 6.76-9.755 6.76-16.041 0-0.243-0.004-0.484-0.012-0.724l0.001 0.035v-0.95h-24.27v-19.19h49.42v62.94h-14.3l-4.56-16.94-2.53 3.4c-3.072 3.951-6.757 7.254-10.943 9.819l-0.177 0.101q-9.27 5.43-21.92 5.42-22.24 0-36.7-14.37-16.5-16.35-16.5-44.32 0-27.66 16.82-44.47 15.46-15.48 38.95-15.48zM135.29 247.91l3.87 0.1q18.84 0.99 28.84 12.080 8.64 9.66 8.64 25.14 0 16.65-10.61 26.090t-29.62 9.5h-24.3v42.12h-25.77v-115zM225.57 247.91l42.59 78v-78h23.49v115h-28.21l-43.68-79.83v79.83h-23.5v-115zM133.8 268.34h-21.69v33.31h21.53q8.73 0 13.32-4.36t4.6-12.61q0-16.35-17.76-16.34zM355 74v85.33h83.82v51.82h-256v-137.15z"></path>
</svg>
