<!-- Generated by IcoMoon.io -->
<svg version="1.1" xmlns="http://www.w3.org/2000/svg" width="512" height="512" viewBox="0 0 512 512">
<title>icon-dc_wiki_page</title>
<path d="M321.75 234.25c-1.76 0-3.71-0.17-3.85 2.31-0.12 2.070-0.35 4.34 2.43 5.13 1.55 0.44 3.050 1.030 4.61 1.34 2.4 0.48 3.030 1.95 2.41 4.070-0.95 3.2-1.9 6.39-3.090 9.48-9.24 23.93-18.56 47.83-27.85 71.75-0.45 1.15-1 2.28-1.76 4.030-6.56-15.27-12.83-29.77-18.92-44.32-0.51-1.24-0.26-3.18 0.35-4.45 4.81-10 10.030-19.81 14.66-29.9 3.12-6.77 7.98-10.84 15.2-12.030 3.97-0.66 5.1-2.74 3.8-7.49-10.84 0-21.92-0.020-32.99 0.020-1.72 0-3.85-0.66-4 2.35-0.12 2.4 0.29 4.040 3.080 4.46 1.81 0.27 3.6 0.9 5.29 1.63 1.79 0.78 3.26 2.070 2.25 4.33-4.19 9.44-8.43 18.85-12.65 28.27-0.36-0.020-0.72-0.020-1.090-0.030-3.75-9.59-7.69-19.12-11.14-28.82-1.31-3.65-0.020-4.61 5.2-5.41 5.2-0.78 5.64-1.51 4.090-6.38-16.95 0-33.79 0-50.57 0-1.3 5.32-1.33 5.49 3.6 6.63 4.89 1.15 8.4 3.53 10.4 8.38 7.25 17.55 14.78 34.98 22.060 52.54 0.57 1.36 0.45 3.44-0.18 4.81-3.72 7.93-7.68 15.74-11.57 23.58-0.84 1.7-1.76 3.36-2.8 5.35-0.56-0.86-0.8-1.15-0.93-1.46-11.43-27.17-22.9-54.31-34.2-81.55-3.15-7.61-2.79-7.58 3.56-12.49 1.22-0.95 1.31-3.39 1.92-5.14-1.21-0.35-2.4-1-3.6-1-10.36-0.020-20.7 0.080-31.060 0.14-3.17 0.020-6.33 0-9.59 0-0.42 3.68-0.71 6.83 3.8 8.050l-0.050 0.020c1.3 0.35 2.5 2.010 3.23 3.36 2.11 3.91 4.13 7.86 5.88 11.94 15.020 35.16 29.96 70.34 45.040 105.48 0.42 1 2.040 1.78 3.23 2.1 1.39 0.36 2.96-0.060 4.42 0.12 2.34 0.27 3.5-0.77 4.48-2.83 3.72-7.78 7.58-15.52 11.52-23.19 4.040-7.87 8.25-15.67 12.71-24.13 1.040 1.96 1.87 3.3 2.47 4.72 5.85 13.45 11.97 26.81 17.31 40.47 1.79 4.6 4.22 5.38 8.43 5.2 2.65-0.11 3.88-0.93 4.76-3.41 2.47-6.98 5.13-13.89 7.86-20.76 12.14-30.34 24.38-60.66 36.49-91.020 1.6-4 3.95-7 7.98-8.72 1.15-0.5 2.050-1.58 3.080-2.4 0-1.24 0-2.47 0-3.71-1.18-0.48-2.34-1.34-3.51-1.37-7.42-0.13-14.81-0.050-22.2-0.050z"></path>
<path d="M36.57 73.14v365.71h438.86v-365.71h-438.86zM438.86 109.71v64h-365.72v-64h365.72zM73.14 402.29v-192h365.71v192h-365.71z"></path>
<path d="M118.85 141.71c0 7.572-6.138 13.71-13.71 13.71s-13.71-6.138-13.71-13.71c0-7.572 6.138-13.71 13.71-13.71s13.71 6.138 13.71 13.71z"></path>
<path d="M164.57 141.71c0 7.572-6.138 13.71-13.71 13.71s-13.71-6.138-13.71-13.71c0-7.572 6.138-13.71 13.71-13.71s13.71 6.138 13.71 13.71z"></path>
<path d="M210.28 141.71c0 7.572-6.138 13.71-13.71 13.71s-13.71-6.138-13.71-13.71c0-7.572 6.138-13.71 13.71-13.71s13.71 6.138 13.71 13.71z"></path>
</svg>
