<!-- Generated by IcoMoon.io -->
<svg version="1.1" xmlns="http://www.w3.org/2000/svg" width="512" height="512" viewBox="0 0 512 512">
<title>icon-dc_folder_image_full</title>
<path d="M421.22 201.14v-91.43h-219.66l-46.8-36.57h-118.19v282.78c0 26.43 19.93 46.37 46.37 46.37h45.060v73.14h347.43v-274.29h-54.21zM231.040 365.71l18.76-15.35 189.060 82.21v6.3h-274.29v-18.76l66.47-54.4zM413.78 381.78l-169.87-73.86-79.34 64.92v-135.13h274.29v154.97l-25.080-10.9z"></path>
<path d="M361.14 256c-17.67 0-32 14.33-32 32s14.33 32 32 32c9.31 0 17.66-4 23.51-10.34 5.25-5.7 8.49-13.29 8.49-21.66s-3.24-15.95-8.49-21.66c-5.84-6.34-14.2-10.34-23.51-10.34z"></path>
</svg>
