<!-- Generated by IcoMoon.io -->
<svg version="1.1" xmlns="http://www.w3.org/2000/svg" width="512" height="512" viewBox="0 0 512 512">
<title>icon-dc_brush</title>
<path d="M418.12 36.57c-15.31 0-29.71 5.97-40.55 16.78l-209.67 209.68-60.84 74.99c-9.32 2.34-18.14 7.14-25.42 14.42-16.14 16.14-31.43 70.28-37.26 92.8l-7.81 30.19 30.19-7.81c22.52-5.81 76.66-21.12 92.8-37.26h0.020c7.19-7.19 12.15-16.030 14.53-25.67l74.85-60.57 209.67-209.67c10.84-10.84 16.81-25.23 16.81-40.55 0.010-31.61-25.7-57.33-57.32-57.33zM133.6 404.39c-4.2 4.020-22.36 11.41-44.5 18.53 7.12-22.13 14.51-40.29 18.53-44.5 3.58-3.58 8.29-5.37 12.97-5.37 4.71 0 9.41 1.79 13 5.37 3.47 3.47 5.37 8.060 5.37 12.97 0 4.92-1.9 9.51-5.37 13zM167.65 362.67c-2.25-3.67-4.96-7.12-8.080-10.24-3.17-3.17-6.66-5.88-10.33-8.1l33.75-41.58 26.27 26.27-41.61 33.65zM432.68 108.46l-196.010 196.010-29.11-29.11 195.98-196.010c3.9-3.9 9.070-6.040 14.58-6.040 11.34 0 20.6 9.23 20.6 20.6 0 5.48-2.14 10.67-6.040 14.55z"></path>
</svg>
