<!-- Generated by IcoMoon.io -->
<svg version="1.1" xmlns="http://www.w3.org/2000/svg" width="512" height="512" viewBox="0 0 512 512">
<title>icon-dc_motion</title>
<path d="M256.020 146.29c-0.36 0-0.73 0-1.090 0-41.52 0.29-80.44 16.72-109.59 46.28s-45.050 68.7-44.76 110.21c0.59 85.34 70.2 154.36 155.41 154.36 0.36 0 0.73 0 1.090 0 41.52-0.29 80.44-16.73 109.59-46.29s45.050-68.7 44.76-110.22c-0.6-85.34-70.2-154.34-155.41-154.34zM340.63 385.17c-22.29 22.6-52.050 35.18-83.8 35.4-0.28 0-0.56 0-0.84 0-65.15 0-118.39-52.78-118.84-118.040-0.22-31.75 11.94-61.68 34.23-84.28s52.050-35.17 83.8-35.39c0.28 0 0.56 0 0.84 0 65.16 0 118.39 52.77 118.84 118.030 0.21 31.74-11.94 61.68-34.23 84.28z"></path>
<path d="M257.4 338.29c-20.94 0-37.97-16.98-37.97-37.86 0-20.4 16.29-37.030 36.57-37.78v15.15l33.75-33.75-33.75-33.76v15.76c-40.46 0.75-73.14 33.82-73.14 74.38 0 41.040 33.44 74.43 74.54 74.43s74.54-33.39 74.54-74.43h-36.57c0 20.87-17.030 37.86-37.97 37.86z"></path>
<path d="M219.43 91.43h54.86v36.57h-54.86v-36.57z"></path>
<path d="M146.29 91.43h54.86v36.57h-54.86v-36.57z"></path>
<path d="M100.57 91.43h27.43v36.57h-27.43v-36.57z"></path>
<path d="M384.33 141.060l31.34-31.35-31.34-31.34v13.060h-91.76v36.57h91.76z"></path>
<path d="M268.65 300.3c0 6.213-5.037 11.25-11.25 11.25s-11.25-5.037-11.25-11.25c0-6.213 5.037-11.25 11.25-11.25s11.25 5.037 11.25 11.25z"></path>
</svg>
