<!-- Generated by IcoMoon.io -->
<svg version="1.1" xmlns="http://www.w3.org/2000/svg" width="512" height="512" viewBox="0 0 512 512">
<title>icon-dc_document_ppt</title>
<path d="M275.17 295.7c3.13-2.97 4.69-7.25 4.69-12.86 0-11.11-6.040-16.67-18.11-16.67h-22.12v33.98h21.96c5.92 0 10.45-1.48 13.58-4.45z"></path>
<path d="M381 36.57h-234.71v173.71h-109.72v182.86h109.71v82.29h329.14v-342.72l-94.42-96.14zM171.93 310.010c-7.27 6.47-17.34 9.7-30.21 9.7h-24.76v42.96h-26.29v-117.34h49.93c14.8 0 25.91 4.14 33.34 12.42 5.88 6.57 8.82 15.12 8.82 25.65-0.010 11.33-3.61 20.2-10.83 26.61zM438.86 438.86h-256v-45.71h256v45.71zM213.33 362.67v-117.34h49.93c14.8 0 25.91 4.14 33.34 12.42 5.88 6.57 8.82 15.12 8.82 25.65 0 11.33-3.61 20.2-10.82 26.61-7.27 6.47-17.34 9.7-30.21 9.7h-24.77v42.96h-26.29zM334.1 266.49v-21.16h92.57v21.16h-33.1v96.17h-26.29v-96.17h-33.18zM438.86 210.29h-256v-137.15h172.19v85.33h83.81v51.82z"></path>
<path d="M139.070 266.17h-22.12v33.98h21.96c5.93 0 10.46-1.48 13.58-4.45 3.13-2.97 4.69-7.25 4.69-12.86 0.010-11.11-6.030-16.67-18.11-16.67z"></path>
</svg>
