<!-- Generated by IcoMoon.io -->
<svg version="1.1" xmlns="http://www.w3.org/2000/svg" width="512" height="512" viewBox="0 0 512 512">
<title>icon-dc_call</title>
<path d="M414.72 311.2l-41.4-41.4c-9.67-9.67-22.53-15-36.21-15s-26.54 5.33-36.21 15l-15.18 15.18c-6.68-3.24-17.93-10.3-33.16-25.53s-22.29-26.48-25.53-33.16l15.18-15.18c19.97-19.97 19.97-52.45 0-72.42l-41.4-41.4c-9.67-9.67-22.53-15-36.21-15s-26.54 5.33-36.21 15l-31.050 31.050c-9.46 9.47-14.77 21.98-14.99 35.33-0.19 5.72-0.22 28.54 9.030 59.78 13 43.92 38.93 86.18 74.96 122.22 33.5 33.5 71.050 57.57 111.61 71.56 32.67 11.27 57.9 12.48 67.24 12.48 1.37 0 2.45-0.020 3.24-0.050 13.32-0.24 25.8-5.54 35.24-14.99l31.050-31.050c19.96-19.97 19.96-52.45 0-72.42zM388.86 357.76l-31.050 31.050c-2.65 2.65-6.31 4.29-10.35 4.29 0 0-0.78 0.040-2.27 0.040-13.34 0-83.16-3.51-152.99-73.34-77.63-77.63-73.29-155.26-73.29-155.26 0-4.040 1.64-7.7 4.29-10.35l31.050-31.050c2.86-2.86 6.6-4.29 10.35-4.29s7.49 1.43 10.35 4.29l41.4 41.4c5.72 5.72 5.72 14.98 0 20.7l-24.15 24.15c-2.65 2.65-4.29 6.31-4.29 10.35 0 0-2.61 24.15 38.79 65.55 36.76 36.76 59.92 38.82 64.65 38.82 0.6 0 0.9-0.030 0.9-0.030 4.040 0 7.7-1.64 10.35-4.29v0l24.15-24.15c2.86-2.86 6.6-4.29 10.35-4.29s7.49 1.43 10.35 4.29l41.4 41.4c5.72 5.73 5.72 15 0.010 20.72z"></path>
</svg>
