<!-- Generated by IcoMoon.io -->
<svg version="1.1" xmlns="http://www.w3.org/2000/svg" width="512" height="512" viewBox="0 0 512 512">
<title>icon-dc_folder_document_empty</title>
<path d="M421.22 182.86v-73.14h-219.66l-46.8-36.57h-118.19v282.78c0 26.43 19.93 46.37 46.37 46.37h163.92v73.14h228.57v-292.58h-54.21zM438.86 438.86h-155.43v-219.43h155.42v219.43zM82.94 365.71c-6.13 0-9.8-3.66-9.8-9.79v-246.21h69.020l46.8 36.57h195.69v36.57h-137.8v182.86h-163.91z"></path>
<path d="M316.73 265.14h84.24v18.29h-84.24v-18.29z"></path>
<path d="M316.73 320h84.24v18.29h-84.24v-18.29z"></path>
<path d="M316.73 374.86h37.44v18.29h-37.44v-18.29z"></path>
</svg>
