<!-- Generated by IcoMoon.io -->
<svg version="1.1" xmlns="http://www.w3.org/2000/svg" width="512" height="512" viewBox="0 0 512 512">
<title>icon-dc_document_pdf</title>
<path d="M136.79 267.7h-22.12v33.98h21.96c5.93 0 10.46-1.48 13.58-4.45 3.13-2.97 4.69-7.25 4.69-12.86 0-11.12-6.040-16.67-18.11-16.67z"></path>
<path d="M257.55 267.7h-17.55v75.66h17.71c9.56 0 16.99-3.020 22.28-9.060 5.61-6.46 8.42-16.080 8.42-28.85 0-14.11-3.47-24.34-10.42-30.7-5.13-4.7-11.94-7.050-20.44-7.050z"></path>
<path d="M381 36.57h-234.71v173.71h-109.72v182.86h109.71v82.29h329.14v-342.72l-94.42-96.14zM169.65 311.53c-7.27 6.47-17.34 9.7-30.21 9.7h-24.76v42.96h-26.3v-117.33h49.93c14.8 0 25.91 4.14 33.34 12.42 5.88 6.57 8.82 15.12 8.82 25.65 0 11.32-3.61 20.19-10.82 26.6zM438.86 438.86h-256v-45.71h256v45.71zM213.71 364.19v-117.33h43.52c19.61 0 34.57 5.69 44.88 17.070 9.14 10.040 13.7 23.75 13.7 41.11 0 19.93-5.82 35.080-17.47 45.44-10.15 9.14-24.12 13.7-41.92 13.7h-42.71zM417.21 299.030v20.52h-42.16v44.64h-26.29v-117.33h80.95v21.16h-54.66v31.020h42.16zM438.86 210.29h-256v-137.15h172.19v85.33h83.81v51.82z"></path>
</svg>
