<!-- Generated by IcoMoon.io -->
<svg version="1.1" xmlns="http://www.w3.org/2000/svg" width="512" height="512" viewBox="0 0 512 512">
<title>icon-dc_whatsapp_b</title>
<path d="M343.69 288.71c-4.41-2.17-26.11-12.69-30.14-14.14-4.040-1.45-6.99-2.18-9.93 2.17s-11.39 14.14-13.97 17.040c-2.57 2.91-5.14 3.27-9.56 1.1-4.41-2.17-18.62-6.77-35.47-21.57-13.11-11.52-21.96-25.74-24.54-30.1-2.57-4.35-0.27-6.7 1.93-8.86 1.99-1.95 4.41-5.080 6.62-7.61 2.21-2.54 2.94-4.35 4.41-7.25 1.48-2.9 0.74-5.44-0.37-7.62-1.1-2.17-9.93-23.56-13.6-32.26s-7.34-7.25-9.92-7.25c-2.57 0-5.51-0.36-8.46-0.36-2.94 0-7.72 1.090-11.77 5.44-4.040 4.35-15.43 14.87-15.43 36.25 0 21.39 15.8 42.050 18.010 44.95 2.2 2.9 30.51 48.21 75.35 65.61 44.85 17.4 44.85 11.59 52.93 10.86 8.080-0.72 26.090-10.51 29.78-20.66 3.67-10.16 3.67-18.86 2.57-20.67s-4.030-2.9-8.44-5.070z"></path>
<path d="M265.14 73.14c-100.82 0-182.85 82.030-182.85 182.86 0 28.71 6.8 57.2 19.69 82.63l-40.18 96.43 14.41-4.12c2.15-0.62 51.26-14.68 82.65-26.12 31.12 22.28 67.78 34.030 106.27 34.030 100.84 0.010 182.87-82.020 182.87-182.85s-82.030-182.86-182.86-182.86zM265.14 424.42c-36.68 0-71.54-11.58-100.81-33.49l-3.16-2.37-3.7 1.39c-20.76 7.79-52.44 17.45-70.77 22.89l31.21-74.91-1.6-3.010c-12.81-24.12-19.59-51.41-19.59-78.92 0-92.87 75.55-168.42 168.42-168.42s168.42 75.55 168.42 168.42-75.55 168.42-168.42 168.42z"></path>
</svg>
