<!-- Generated by IcoMoon.io -->
<svg version="1.1" xmlns="http://www.w3.org/2000/svg" width="512" height="512" viewBox="0 0 512 512">
<title>icon-dc_AI</title>
<path d="M361.33 284.32h36.67v-36.73h-36.67v-36.3h37.21v-36.73h-37.21v-27.48h-27.070v-36.66h-36.73v36.66h-36.83v-36.66h-36.7v36.66h-27.45v27.38h-36.95v36.73h36.85l-0.070 36.89h-36.59v36.73h36.53v27.34h27.68v36.59h36.7v-36.59h36.4v36.59h36.73v-36.59h27.5zM324.6 275.42h-91.53l0.15-91.61h91.38zM420.060 93.93c-36.060-37.52-85.36-57.36-142.64-57.36-90.49 0-147.75 29.75-175 90.95-13.52 30.32-14.94 79.1-15 95.66l-44.99 71.62c-3.672 5.779-5.852 12.82-5.852 20.37 0 21.197 17.183 38.38 38.38 38.38 0.014 0 0.029 0 0.044 0h12.377v35c0 19.95 6.33 36.080 18.3 46.65 7.65 6.76 21.24 14.26 42.52 11.61l46.34-9.18v37.79h36.73v-82.55l-88.21 17.57c-5.87 0.65-10.27-0.29-13.070-2.76-3.74-3.3-5.88-10.27-5.88-19.12v-71.74h-49.11c-0.034 0.002-0.074 0.004-0.114 0.004-0.616 0-1.148-0.357-1.402-0.875l-0.004-0.009c-0.162-0.226-0.26-0.51-0.26-0.815s0.097-0.589 0.263-0.82l-0.003 0.005 50.67-80.78-0.11-5.49c-0.33-15.71 1.16-61.7 11.8-85.55 13.25-29.7 42.34-69.19 141.51-69.19 103.87 0 158.22 78 158.22 155.12 0 45.75-22.32 68-48.17 93.75-32.2 32.080-32.2 73.28-32.2 93.080v60.18h36.8v-60.18c0-17.11 0-45.75 21.39-67.060 27.65-27.55 59-58.76 59-119.77-0.020-51.61-18.6-99.42-52.33-134.49zM306.48 202h-55.1v55.090h55.1z"></path>
</svg>
