<!-- Generated by IcoMoon.io -->
<svg version="1.1" xmlns="http://www.w3.org/2000/svg" width="512" height="512" viewBox="0 0 512 512">
<title>icon-dc_locator_spot</title>
<path d="M338.29 256c0 45.447-36.843 82.29-82.29 82.29s-82.29-36.843-82.29-82.29c0-45.447 36.843-82.29 82.29-82.29s82.29 36.843 82.29 82.29z"></path>
<path d="M437.94 237.71c-8.6-86.26-77.4-155.050-163.65-163.65v-37.49h-36.57v37.49c-86.26 8.6-155.050 77.4-163.65 163.65h-37.5v36.57h37.49c8.6 86.26 77.4 155.050 163.65 163.65v37.49h36.57v-37.49c86.26-8.6 155.050-77.4 163.65-163.65h37.49v-36.57h-37.48zM256 402.29c-80.66 0-146.29-65.62-146.29-146.29s65.63-146.29 146.29-146.29 146.29 65.63 146.29 146.29-65.63 146.29-146.29 146.29z"></path>
</svg>
