<!-- Generated by IcoMoon.io -->
<svg version="1.1" xmlns="http://www.w3.org/2000/svg" width="512" height="512" viewBox="0 0 512 512">
<title>icon-dc_service</title>
<path d="M247.5 448h-200.5l120.88-171.25c-8.27-19.6-12.45-40.37-12.45-61.9 0-88.22 71.78-160 160-160 9.44 0 30.48 2.93 33.35 3.52l30.77 6.42-94.84 124.45 61.28 47.78 96.040-123.87 13.45 24.27c13.050 23.57 19.96 50.34 19.96 77.43 0 88.22-71.78 160-160 160-6.13 0-12.3-0.36-18.45-1.070l-49.49 74.22zM117.58 411.43h110.35l51.84-77.77 11.95 2.33c7.85 1.52 15.82 2.3 23.7 2.3 68.060 0 123.43-55.37 123.43-123.43 0-10.97-1.46-21.87-4.31-32.37l-61.45 79.25c-5.57 7.14-13.53 11.66-22.47 12.77-8.94 1.1-17.77-1.33-24.87-6.87l-65.79-51.3c-14.65-11.42-17.28-32.64-5.86-47.3l59.13-77.59c-67.040 1.16-121.23 56.070-121.23 123.41 0 19.51 4.45 38.2 13.22 55.56l4.96 9.81-92.6 131.2zM283.12 191.32l-0.030 0.040c0.010-0.010 0.020-0.030 0.030-0.040z"></path>
</svg>
