<!-- Generated by IcoMoon.io -->
<svg version="1.1" xmlns="http://www.w3.org/2000/svg" width="512" height="512" viewBox="0 0 512 512">
<title>icon-dc_kinematic</title>
<path d="M100.57 283.43c0-55.020 26.54-100.37 73.14-125.75v-40.78l-7.84 3.72c-63.79 30.29-101.87 91.15-101.87 162.81v0h-18.29l36.57 42.67 36.57-42.67h-18.28z"></path>
<path d="M322.68 183.96l28.53-66.25c13.6-3.69 23.64-16.1 23.64-30.85 0-17.65-14.35-32-32-32s-32 14.35-32 32c0 0.49 0.050 0.97 0.070 1.46l-112.050 89.39c-0.82 0.65-1.54 1.37-2.22 2.12-40.76 21.37-68.65 64.020-68.65 113.070 0 70.4 57.42 127.67 128 127.67s128-57.27 128-127.67c0-46.050-24.57-86.47-61.32-108.94zM342.86 76.19c0.15 0 0.29 0.040 0.44 0.040 4.55 0.19 8.33 3.22 9.67 7.38 0.33 1.030 0.56 2.1 0.56 3.24 0 5.89-4.78 10.67-10.67 10.67s-10.67-4.78-10.67-10.67c0-5.88 4.78-10.66 10.67-10.66zM300.23 143.64l-11.17 25.93c-5.58-1.49-11.32-2.6-17.17-3.32l28.34-22.61zM256 384c-50.41 0-91.43-40.87-91.43-91.1s41.010-91.1 91.43-91.1c6.3 0 12.45 0.64 18.39 1.85l-24.87 57.75c-15.040 2.61-26.53 15.72-26.53 31.5 0 17.65 14.35 32 32 32s32-14.35 32-32c0-5.83-1.59-11.28-4.33-16l25.35-58.87c23.8 16.46 39.42 43.87 39.42 74.87 0 50.23-41.020 91.1-91.43 91.1zM265.65 292.9c0 5.89-4.78 10.67-10.67 10.67s-10.67-4.78-10.67-10.67 4.78-10.67 10.67-10.67c5.9 0 10.67 4.78 10.67 10.67z"></path>
</svg>
